<svg width="116" height="31" viewBox="0 0 116 31" fill="none" xmlns="http://www.w3.org/2000/svg">
<path d="M42.0801 12.5469V4.14687H45.5361C46.0641 4.14687 46.5281 4.25487 46.9281 4.47087C47.3361 4.67887 47.6521 4.97487 47.8761 5.35887C48.1081 5.74287 48.2241 6.19887 48.2241 6.72687V6.89487C48.2241 7.41487 48.1041 7.87087 47.8641 8.26287C47.6321 8.64687 47.3121 8.94687 46.9041 9.16287C46.5041 9.37087 46.0481 9.47487 45.5361 9.47487H43.6641V12.5469H42.0801ZM43.6641 8.03487H45.3801C45.7561 8.03487 46.0601 7.93087 46.2921 7.72287C46.5241 7.51487 46.6401 7.23087 46.6401 6.87087V6.75087C46.6401 6.39087 46.5241 6.10687 46.2921 5.89887C46.0601 5.69087 45.7561 5.58687 45.3801 5.58687H43.6641V8.03487ZM49.3703 12.5469V6.59487H50.8823V12.5469H49.3703ZM50.1263 5.89887C49.8543 5.89887 49.6223 5.81087 49.4303 5.63487C49.2463 5.45887 49.1543 5.22687 49.1543 4.93887C49.1543 4.65087 49.2463 4.41887 49.4303 4.24287C49.6223 4.06687 49.8543 3.97887 50.1263 3.97887C50.4063 3.97887 50.6383 4.06687 50.8223 4.24287C51.0063 4.41887 51.0983 4.65087 51.0983 4.93887C51.0983 5.22687 51.0063 5.45887 50.8223 5.63487C50.6383 5.81087 50.4063 5.89887 50.1263 5.89887ZM52.0298 12.5469L54.1898 9.54688L52.0538 6.59487H53.8058L55.1618 8.57487H55.3778L56.7338 6.59487H58.4858L56.3498 9.54688L58.5098 12.5469H56.7338L55.3778 10.5429H55.1618L53.8058 12.5469H52.0298ZM61.9846 12.7149C61.3926 12.7149 60.8686 12.5909 60.4126 12.3429C59.9646 12.0869 59.6126 11.7309 59.3566 11.2749C59.1086 10.8109 58.9846 10.2669 58.9846 9.64287V9.49887C58.9846 8.87487 59.1086 8.33487 59.3566 7.87887C59.6046 7.41487 59.9526 7.05887 60.4006 6.81087C60.8486 6.55487 61.3686 6.42687 61.9606 6.42687C62.5446 6.42687 63.0526 6.55887 63.4846 6.82287C63.9166 7.07887 64.2526 7.43887 64.4926 7.90287C64.7326 8.35887 64.8526 8.89087 64.8526 9.49887V10.0149H60.5206C60.5366 10.4229 60.6886 10.7549 60.9766 11.0109C61.2646 11.2669 61.6166 11.3949 62.0326 11.3949C62.4566 11.3949 62.7686 11.3029 62.9686 11.1189C63.1686 10.9349 63.3206 10.7309 63.4246 10.5069L64.6606 11.1549C64.5486 11.3629 64.3846 11.5909 64.1686 11.8389C63.9606 12.0789 63.6806 12.2869 63.3286 12.4629C62.9766 12.6309 62.5286 12.7149 61.9846 12.7149ZM60.5326 8.88687H63.3166C63.2846 8.54287 63.1446 8.26687 62.8966 8.05887C62.6566 7.85087 62.3406 7.74687 61.9486 7.74687C61.5406 7.74687 61.2166 7.85087 60.9766 8.05887C60.7366 8.26687 60.5886 8.54287 60.5326 8.88687ZM66.1984 12.5469V4.14687H67.7104V12.5469H66.1984ZM69.3379 12.5469V4.14687H72.7939C73.3219 4.14687 73.7859 4.25487 74.1859 4.47087C74.5939 4.67887 74.9099 4.97487 75.1339 5.35887C75.3659 5.74287 75.4819 6.19887 75.4819 6.72687V6.89487C75.4819 7.41487 75.3619 7.87087 75.1219 8.26287C74.8899 8.64687 74.5699 8.94687 74.1619 9.16287C73.7619 9.37087 73.3059 9.47487 72.7939 9.47487H70.9219V12.5469H69.3379ZM70.9219 8.03487H72.6379C73.0139 8.03487 73.3179 7.93087 73.5499 7.72287C73.7819 7.51487 73.8979 7.23087 73.8979 6.87087V6.75087C73.8979 6.39087 73.7819 6.10687 73.5499 5.89887C73.3179 5.69087 73.0139 5.58687 72.6379 5.58687H70.9219V8.03487ZM79.1995 12.7149C78.6075 12.7149 78.0835 12.5909 77.6275 12.3429C77.1795 12.0869 76.8275 11.7309 76.5715 11.2749C76.3235 10.8109 76.1995 10.2669 76.1995 9.64287V9.49887C76.1995 8.87487 76.3235 8.33487 76.5715 7.87887C76.8195 7.41487 77.1675 7.05887 77.6155 6.81087C78.0635 6.55487 78.5835 6.42687 79.1755 6.42687C79.7595 6.42687 80.2675 6.55887 80.6995 6.82287C81.1315 7.07887 81.4675 7.43887 81.7075 7.90287C81.9475 8.35887 82.0675 8.89087 82.0675 9.49887V10.0149H77.7355C77.7515 10.4229 77.9035 10.7549 78.1915 11.0109C78.4795 11.2669 78.8315 11.3949 79.2475 11.3949C79.6715 11.3949 79.9835 11.3029 80.1835 11.1189C80.3835 10.9349 80.5355 10.7309 80.6395 10.5069L81.8755 11.1549C81.7635 11.3629 81.5995 11.5909 81.3835 11.8389C81.1755 12.0789 80.8955 12.2869 80.5435 12.4629C80.1915 12.6309 79.7435 12.7149 79.1995 12.7149ZM77.7475 8.88687H80.5315C80.4995 8.54287 80.3595 8.26687 80.1115 8.05887C79.8715 7.85087 79.5555 7.74687 79.1635 7.74687C78.7555 7.74687 78.4315 7.85087 78.1915 8.05887C77.9515 8.26687 77.8035 8.54287 77.7475 8.88687ZM83.4132 12.5469V6.59487H84.9012V7.26687H85.1172C85.2052 7.02687 85.3492 6.85087 85.5492 6.73887C85.7572 6.62687 85.9972 6.57087 86.2692 6.57087H86.9892V7.91487H86.2452C85.8612 7.91487 85.5452 8.01887 85.2972 8.22687C85.0492 8.42687 84.9252 8.73887 84.9252 9.16287V12.5469H83.4132ZM89.1551 12.5469V7.84287H87.6431V6.59487H89.1551V5.49088C89.1551 5.08287 89.2751 4.75887 89.5151 4.51887C89.7631 4.27087 90.0831 4.14687 90.4751 4.14687H92.0351V5.39487H91.0031C90.7791 5.39487 90.6671 5.51487 90.6671 5.75487V6.59487H92.2271V7.84287H90.6671V12.5469H89.1551ZM95.9104 12.7149C95.3184 12.7149 94.7944 12.5909 94.3384 12.3429C93.8904 12.0869 93.5384 11.7309 93.2824 11.2749C93.0344 10.8109 92.9104 10.2669 92.9104 9.64287V9.49887C92.9104 8.87487 93.0344 8.33487 93.2824 7.87887C93.5304 7.41487 93.8784 7.05887 94.3264 6.81087C94.7744 6.55487 95.2944 6.42687 95.8864 6.42687C96.4704 6.42687 96.9784 6.55887 97.4104 6.82287C97.8424 7.07887 98.1784 7.43887 98.4184 7.90287C98.6584 8.35887 98.7784 8.89087 98.7784 9.49887V10.0149H94.4464C94.4624 10.4229 94.6144 10.7549 94.9024 11.0109C95.1904 11.2669 95.5424 11.3949 95.9584 11.3949C96.3824 11.3949 96.6944 11.3029 96.8944 11.1189C97.0944 10.9349 97.2464 10.7309 97.3504 10.5069L98.5864 11.1549C98.4744 11.3629 98.3104 11.5909 98.0944 11.8389C97.8864 12.0789 97.6064 12.2869 97.2544 12.4629C96.9024 12.6309 96.4544 12.7149 95.9104 12.7149ZM94.4584 8.88687H97.2424C97.2104 8.54287 97.0704 8.26687 96.8224 8.05887C96.5824 7.85087 96.2664 7.74687 95.8744 7.74687C95.4664 7.74687 95.1424 7.85087 94.9024 8.05887C94.6624 8.26687 94.5144 8.54287 94.4584 8.88687ZM102.92 12.7149C102.344 12.7149 101.82 12.5949 101.348 12.3549C100.884 12.1149 100.516 11.7669 100.244 11.3109C99.9722 10.8549 99.8362 10.3029 99.8362 9.65487V9.48687C99.8362 8.83887 99.9722 8.28687 100.244 7.83087C100.516 7.37487 100.884 7.02687 101.348 6.78687C101.82 6.54687 102.344 6.42687 102.92 6.42687C103.488 6.42687 103.976 6.52687 104.384 6.72687C104.792 6.92687 105.12 7.20287 105.368 7.55487C105.624 7.89887 105.792 8.29087 105.872 8.73087L104.408 9.04287C104.376 8.80287 104.304 8.58687 104.192 8.39487C104.08 8.20287 103.92 8.05087 103.712 7.93887C103.512 7.82687 103.26 7.77087 102.956 7.77087C102.652 7.77087 102.376 7.83887 102.128 7.97487C101.888 8.10287 101.696 8.29887 101.552 8.56287C101.416 8.81887 101.348 9.13487 101.348 9.51087V9.63087C101.348 10.0069 101.416 10.3269 101.552 10.5909C101.696 10.8469 101.888 11.0429 102.128 11.1789C102.376 11.3069 102.652 11.3709 102.956 11.3709C103.412 11.3709 103.756 11.2549 103.988 11.0229C104.228 10.7829 104.38 10.4709 104.444 10.0869L105.908 10.4349C105.804 10.8589 105.624 11.2469 105.368 11.5989C105.12 11.9429 104.792 12.2149 104.384 12.4149C103.976 12.6149 103.488 12.7149 102.92 12.7149ZM109.236 12.5469C108.844 12.5469 108.524 12.4269 108.276 12.1869C108.036 11.9389 107.916 11.6109 107.916 11.2029V7.84287H106.428V6.59487H107.916V4.74687H109.428V6.59487H111.06V7.84287H109.428V10.9389C109.428 11.1789 109.54 11.2989 109.764 11.2989H110.916V12.5469H109.236ZM42.1281 27.5469V21.5949H43.6401V27.5469H42.1281ZM42.8841 20.8989C42.6121 20.8989 42.3801 20.8109 42.1881 20.6349C42.0041 20.4589 41.9121 20.2269 41.9121 19.9389C41.9121 19.6509 42.0041 19.4189 42.1881 19.2429C42.3801 19.0669 42.6121 18.9789 42.8841 18.9789C43.1641 18.9789 43.3961 19.0669 43.5801 19.2429C43.7641 19.4189 43.8561 19.6509 43.8561 19.9389C43.8561 20.2269 43.7641 20.4589 43.5801 20.6349C43.3961 20.8109 43.1641 20.8989 42.8841 20.8989ZM45.3156 27.5469V21.5949H46.8036V22.3749H47.0196C47.1156 22.1669 47.2956 21.9709 47.5596 21.7869C47.8236 21.5949 48.2236 21.4989 48.7596 21.4989C49.2236 21.4989 49.6276 21.6069 49.9716 21.8229C50.3236 22.0309 50.5956 22.3229 50.7876 22.6989C50.9796 23.0669 51.0756 23.4989 51.0756 23.9949V27.5469H49.5636V24.1149C49.5636 23.6669 49.4516 23.3309 49.2276 23.1069C49.0116 22.8829 48.6996 22.7709 48.2916 22.7709C47.8276 22.7709 47.4676 22.9269 47.2116 23.2389C46.9556 23.5429 46.8276 23.9709 46.8276 24.5229V27.5469H45.3156ZM52.7101 27.5469V21.5949H54.1981V22.3749H54.4141C54.5101 22.1669 54.6901 21.9709 54.9541 21.7869C55.2181 21.5949 55.6181 21.4989 56.1541 21.4989C56.6181 21.4989 57.0221 21.6069 57.3661 21.8229C57.7181 22.0309 57.9901 22.3229 58.1821 22.6989C58.3741 23.0669 58.4701 23.4989 58.4701 23.9949V27.5469H56.9581V24.1149C56.9581 23.6669 56.8461 23.3309 56.6221 23.1069C56.4061 22.8829 56.0941 22.7709 55.6861 22.7709C55.2221 22.7709 54.8621 22.9269 54.6061 23.2389C54.3501 23.5429 54.2221 23.9709 54.2221 24.5229V27.5469H52.7101ZM62.9366 27.7149C62.3446 27.7149 61.8126 27.5949 61.3406 27.3549C60.8686 27.1149 60.4966 26.7669 60.2246 26.3109C59.9526 25.8549 59.8166 25.3069 59.8166 24.6669V24.4749C59.8166 23.8349 59.9526 23.2869 60.2246 22.8309C60.4966 22.3749 60.8686 22.0269 61.3406 21.7869C61.8126 21.5469 62.3446 21.4269 62.9366 21.4269C63.5286 21.4269 64.0606 21.5469 64.5326 21.7869C65.0046 22.0269 65.3766 22.3749 65.6486 22.8309C65.9206 23.2869 66.0566 23.8349 66.0566 24.4749V24.6669C66.0566 25.3069 65.9206 25.8549 65.6486 26.3109C65.3766 26.7669 65.0046 27.1149 64.5326 27.3549C64.0606 27.5949 63.5286 27.7149 62.9366 27.7149ZM62.9366 26.3709C63.4006 26.3709 63.7846 26.2229 64.0886 25.9269C64.3926 25.6229 64.5446 25.1909 64.5446 24.6309V24.5109C64.5446 23.9509 64.3926 23.5229 64.0886 23.2269C63.7926 22.9229 63.4086 22.7709 62.9366 22.7709C62.4726 22.7709 62.0886 22.9229 61.7846 23.2269C61.4806 23.5229 61.3286 23.9509 61.3286 24.5109V24.6309C61.3286 25.1909 61.4806 25.6229 61.7846 25.9269C62.0886 26.2229 62.4726 26.3709 62.9366 26.3709ZM68.5245 27.5469L66.6285 21.5949H68.2365L69.6165 26.4429H69.8325L71.2125 21.5949H72.8205L70.9245 27.5469H68.5245ZM75.5581 27.7149C75.1341 27.7149 74.7541 27.6429 74.4181 27.4989C74.0821 27.3469 73.8141 27.1309 73.6141 26.8509C73.4221 26.5629 73.3261 26.2149 73.3261 25.8069C73.3261 25.3989 73.4221 25.0589 73.6141 24.7869C73.8141 24.5069 74.0861 24.2989 74.4301 24.1629C74.7821 24.0189 75.1821 23.9469 75.6301 23.9469H77.2621V23.6109C77.2621 23.3309 77.1741 23.1029 76.9981 22.9269C76.8221 22.7429 76.5421 22.6509 76.1581 22.6509C75.7821 22.6509 75.5021 22.7389 75.3181 22.9149C75.1341 23.0829 75.0141 23.3029 74.9581 23.5749L73.5661 23.1069C73.6621 22.8029 73.8141 22.5269 74.0221 22.2789C74.2381 22.0229 74.5221 21.8189 74.8741 21.6669C75.2341 21.5069 75.6701 21.4269 76.1821 21.4269C76.9661 21.4269 77.5861 21.6229 78.0421 22.0149C78.4981 22.4069 78.7261 22.9749 78.7261 23.7189V25.9389C78.7261 26.1789 78.8381 26.2989 79.0621 26.2989H79.5421V27.5469H78.5341C78.2381 27.5469 77.9941 27.4749 77.8021 27.3309C77.6101 27.1869 77.5141 26.9949 77.5141 26.7549V26.7429H77.2861C77.2541 26.8389 77.1821 26.9669 77.0701 27.1269C76.9581 27.2789 76.7821 27.4149 76.5421 27.5349C76.3021 27.6549 75.9741 27.7149 75.5581 27.7149ZM75.8221 26.4909C76.2461 26.4909 76.5901 26.3749 76.8541 26.1429C77.1261 25.9029 77.2621 25.5869 77.2621 25.1949V25.0749H75.7381C75.4581 25.0749 75.2381 25.1349 75.0781 25.2549C74.9181 25.3749 74.8381 25.5429 74.8381 25.7589C74.8381 25.9749 74.9221 26.1509 75.0901 26.2869C75.2581 26.4229 75.5021 26.4909 75.8221 26.4909ZM82.494 27.5469C82.102 27.5469 81.782 27.4269 81.534 27.1869C81.294 26.9389 81.174 26.6109 81.174 26.2029V22.8429H79.686V21.5949H81.174V19.7469H82.686V21.5949H84.318V22.8429H82.686V25.9389C82.686 26.1789 82.798 26.2989 83.022 26.2989H84.174V27.5469H82.494ZM85.6867 27.5469V21.5949H87.1987V27.5469H85.6867ZM86.4427 20.8989C86.1707 20.8989 85.9387 20.8109 85.7467 20.6349C85.5627 20.4589 85.4707 20.2269 85.4707 19.9389C85.4707 19.6509 85.5627 19.4189 85.7467 19.2429C85.9387 19.0669 86.1707 18.9789 86.4427 18.9789C86.7227 18.9789 86.9547 19.0669 87.1387 19.2429C87.3227 19.4189 87.4147 19.6509 87.4147 19.9389C87.4147 20.2269 87.3227 20.4589 87.1387 20.6349C86.9547 20.8109 86.7227 20.8989 86.4427 20.8989ZM91.7062 27.7149C91.1142 27.7149 90.5822 27.5949 90.1102 27.3549C89.6382 27.1149 89.2662 26.7669 88.9942 26.3109C88.7222 25.8549 88.5862 25.3069 88.5862 24.6669V24.4749C88.5862 23.8349 88.7222 23.2869 88.9942 22.8309C89.2662 22.3749 89.6382 22.0269 90.1102 21.7869C90.5822 21.5469 91.1142 21.4269 91.7062 21.4269C92.2982 21.4269 92.8302 21.5469 93.3022 21.7869C93.7742 22.0269 94.1462 22.3749 94.4182 22.8309C94.6902 23.2869 94.8262 23.8349 94.8262 24.4749V24.6669C94.8262 25.3069 94.6902 25.8549 94.4182 26.3109C94.1462 26.7669 93.7742 27.1149 93.3022 27.3549C92.8302 27.5949 92.2982 27.7149 91.7062 27.7149ZM91.7062 26.3709C92.1702 26.3709 92.5542 26.2229 92.8582 25.9269C93.1622 25.6229 93.3142 25.1909 93.3142 24.6309V24.5109C93.3142 23.9509 93.1622 23.5229 92.8582 23.2269C92.5622 22.9229 92.1782 22.7709 91.7062 22.7709C91.2422 22.7709 90.8582 22.9229 90.5542 23.2269C90.2502 23.5229 90.0982 23.9509 90.0982 24.5109V24.6309C90.0982 25.1909 90.2502 25.6229 90.5542 25.9269C90.8582 26.2229 91.2422 26.3709 91.7062 26.3709ZM96.2218 27.5469V21.5949H97.7098V22.3749H97.9258C98.0218 22.1669 98.2018 21.9709 98.4658 21.7869C98.7298 21.5949 99.1298 21.4989 99.6658 21.4989C100.13 21.4989 100.534 21.6069 100.878 21.8229C101.23 22.0309 101.502 22.3229 101.694 22.6989C101.886 23.0669 101.982 23.4989 101.982 23.9949V27.5469H100.47V24.1149C100.47 23.6669 100.358 23.3309 100.134 23.1069C99.9178 22.8829 99.6058 22.7709 99.1978 22.7709C98.7338 22.7709 98.3738 22.9269 98.1178 23.2389C97.8618 23.5429 97.7338 23.9709 97.7338 24.5229V27.5469H96.2218ZM106.088 27.7149C105.312 27.7149 104.676 27.5469 104.18 27.2109C103.684 26.8749 103.384 26.3949 103.28 25.7709L104.672 25.4109C104.728 25.6909 104.82 25.9109 104.948 26.0709C105.084 26.2309 105.248 26.3469 105.44 26.4189C105.64 26.4829 105.856 26.5149 106.088 26.5149C106.44 26.5149 106.7 26.4549 106.868 26.3349C107.036 26.2069 107.12 26.0509 107.12 25.8669C107.12 25.6829 107.04 25.5429 106.88 25.4469C106.72 25.3429 106.464 25.2589 106.112 25.1949L105.776 25.1349C105.36 25.0549 104.98 24.9469 104.636 24.8109C104.292 24.6669 104.016 24.4709 103.808 24.2229C103.6 23.9749 103.496 23.6549 103.496 23.2629C103.496 22.6709 103.712 22.2189 104.144 21.9069C104.576 21.5869 105.144 21.4269 105.848 21.4269C106.512 21.4269 107.064 21.5749 107.504 21.8709C107.944 22.1669 108.232 22.5549 108.368 23.0349L106.964 23.4669C106.9 23.1629 106.768 22.9469 106.568 22.8189C106.376 22.6909 106.136 22.6269 105.848 22.6269C105.56 22.6269 105.34 22.6789 105.188 22.7829C105.036 22.8789 104.96 23.0149 104.96 23.1909C104.96 23.3829 105.04 23.5269 105.2 23.6229C105.36 23.7109 105.576 23.7789 105.848 23.8269L106.184 23.8869C106.632 23.9669 107.036 24.0749 107.396 24.2109C107.764 24.3389 108.052 24.5269 108.26 24.7749C108.476 25.0149 108.584 25.3429 108.584 25.7589C108.584 26.3829 108.356 26.8669 107.9 27.2109C107.452 27.5469 106.848 27.7149 106.088 27.7149Z" fill="#232323"/>
<rect x="0.355469" y="0.248047" width="29.5986" height="29.5986" fill="#232323"/>
</svg>
