<svg width="152" height="43" viewBox="0 0 152 43" fill="none" xmlns="http://www.w3.org/2000/svg">
<path d="M59.5511 16.427V5.22704H64.1591C64.8631 5.22704 65.4818 5.37104 66.0151 5.65904C66.5591 5.93638 66.9805 6.33104 67.2791 6.84304C67.5885 7.35504 67.7431 7.96304 67.7431 8.66704V8.89104C67.7431 9.58438 67.5831 10.1924 67.2631 10.715C66.9538 11.227 66.5271 11.627 65.9831 11.915C65.4498 12.1924 64.8418 12.331 64.1591 12.331H61.6631V16.427H59.5511ZM61.6631 10.411H63.9511C64.4525 10.411 64.8578 10.2724 65.1671 9.99504C65.4765 9.71771 65.6311 9.33904 65.6311 8.85904V8.69904C65.6311 8.21904 65.4765 7.84038 65.1671 7.56304C64.8578 7.28571 64.4525 7.14704 63.9511 7.14704H61.6631V10.411Z" fill="white"/>
<path d="M69.2714 16.427V8.49104H71.2874V16.427H69.2714ZM70.2794 7.56304C69.9167 7.56304 69.6074 7.44571 69.3514 7.21104C69.1061 6.97638 68.9834 6.66704 68.9834 6.28304C68.9834 5.89904 69.1061 5.58971 69.3514 5.35504C69.6074 5.12038 69.9167 5.00304 70.2794 5.00304C70.6527 5.00304 70.9621 5.12038 71.2074 5.35504C71.4527 5.58971 71.5754 5.89904 71.5754 6.28304C71.5754 6.66704 71.4527 6.97638 71.2074 7.21104C70.9621 7.44571 70.6527 7.56304 70.2794 7.56304Z" fill="white"/>
<path d="M72.8174 16.427L75.6974 12.427L72.8494 8.49104H75.1854L76.9934 11.131H77.2814L79.0894 8.49104H81.4254L78.5774 12.427L81.4574 16.427H79.0894L77.2814 13.755H76.9934L75.1854 16.427H72.8174Z" fill="white"/>
<path d="M86.0905 16.651C85.3012 16.651 84.6025 16.4857 83.9945 16.155C83.3972 15.8137 82.9279 15.339 82.5865 14.731C82.2559 14.1124 82.0905 13.387 82.0905 12.555V12.363C82.0905 11.531 82.2559 10.811 82.5865 10.203C82.9172 9.58438 83.3812 9.10971 83.9785 8.77904C84.5758 8.43771 85.2692 8.26704 86.0585 8.26704C86.8372 8.26704 87.5145 8.44304 88.0905 8.79504C88.6665 9.13638 89.1145 9.61638 89.4345 10.235C89.7545 10.843 89.9145 11.5524 89.9145 12.363V13.051H84.1385C84.1599 13.595 84.3625 14.0377 84.7465 14.379C85.1305 14.7204 85.5999 14.891 86.1545 14.891C86.7199 14.891 87.1359 14.7684 87.4025 14.523C87.6692 14.2777 87.8719 14.0057 88.0105 13.707L89.6585 14.571C89.5092 14.8484 89.2905 15.1524 89.0025 15.483C88.7252 15.803 88.3519 16.0804 87.8825 16.315C87.4132 16.539 86.8158 16.651 86.0905 16.651ZM84.1545 11.547H87.8665C87.8238 11.0884 87.6372 10.7204 87.3065 10.443C86.9865 10.1657 86.5652 10.027 86.0425 10.027C85.4985 10.027 85.0665 10.1657 84.7465 10.443C84.4265 10.7204 84.2292 11.0884 84.1545 11.547Z" fill="white"/>
<path d="M91.7089 16.427V5.22704H93.7249V16.427H91.7089Z" fill="white"/>
<path d="M95.8949 16.427V5.22704H100.503C101.207 5.22704 101.826 5.37104 102.359 5.65904C102.903 5.93638 103.324 6.33104 103.623 6.84304C103.932 7.35504 104.087 7.96304 104.087 8.66704V8.89104C104.087 9.58438 103.927 10.1924 103.607 10.715C103.298 11.227 102.871 11.627 102.327 11.915C101.794 12.1924 101.186 12.331 100.503 12.331H98.0069V16.427H95.8949ZM98.0069 10.411H100.295C100.796 10.411 101.202 10.2724 101.511 9.99504C101.82 9.71771 101.975 9.33904 101.975 8.85904V8.69904C101.975 8.21904 101.82 7.84038 101.511 7.56304C101.202 7.28571 100.796 7.14704 100.295 7.14704H98.0069V10.411Z" fill="white"/>
<path d="M109.044 16.651C108.254 16.651 107.556 16.4857 106.948 16.155C106.35 15.8137 105.881 15.339 105.54 14.731C105.209 14.1124 105.044 13.387 105.044 12.555V12.363C105.044 11.531 105.209 10.811 105.54 10.203C105.87 9.58438 106.334 9.10971 106.932 8.77904C107.529 8.43771 108.222 8.26704 109.012 8.26704C109.79 8.26704 110.468 8.44304 111.044 8.79504C111.62 9.13638 112.068 9.61638 112.388 10.235C112.708 10.843 112.868 11.5524 112.868 12.363V13.051H107.092C107.113 13.595 107.316 14.0377 107.7 14.379C108.084 14.7204 108.553 14.891 109.108 14.891C109.673 14.891 110.089 14.7684 110.356 14.523C110.622 14.2777 110.825 14.0057 110.964 13.707L112.612 14.571C112.462 14.8484 112.244 15.1524 111.956 15.483C111.678 15.803 111.305 16.0804 110.836 16.315C110.366 16.539 109.769 16.651 109.044 16.651ZM107.108 11.547H110.82C110.777 11.0884 110.59 10.7204 110.26 10.443C109.94 10.1657 109.518 10.027 108.996 10.027C108.452 10.027 108.02 10.1657 107.7 10.443C107.38 10.7204 107.182 11.0884 107.108 11.547Z" fill="white"/>
<path d="M114.662 16.427V8.49104H116.646V9.38704H116.934C117.051 9.06704 117.243 8.83238 117.51 8.68304C117.787 8.53371 118.107 8.45904 118.47 8.45904H119.43V10.251H118.438C117.926 10.251 117.505 10.3897 117.174 10.667C116.843 10.9337 116.678 11.3497 116.678 11.915V16.427H114.662Z" fill="white"/>
<path d="M122.318 16.427V10.155H120.302V8.49104H122.318V7.01904C122.318 6.47504 122.478 6.04304 122.798 5.72304C123.128 5.39238 123.555 5.22704 124.078 5.22704H126.158V6.89104H124.782C124.483 6.89104 124.334 7.05104 124.334 7.37104V8.49104H126.414V10.155H124.334V16.427H122.318Z" fill="white"/>
<path d="M131.325 16.651C130.536 16.651 129.837 16.4857 129.229 16.155C128.632 15.8137 128.162 15.339 127.821 14.731C127.49 14.1124 127.325 13.387 127.325 12.555V12.363C127.325 11.531 127.49 10.811 127.821 10.203C128.152 9.58438 128.616 9.10971 129.213 8.77904C129.81 8.43771 130.504 8.26704 131.293 8.26704C132.072 8.26704 132.749 8.44304 133.325 8.79504C133.901 9.13638 134.349 9.61638 134.669 10.235C134.989 10.843 135.149 11.5524 135.149 12.363V13.051H129.373C129.394 13.595 129.597 14.0377 129.981 14.379C130.365 14.7204 130.834 14.891 131.389 14.891C131.954 14.891 132.37 14.7684 132.637 14.523C132.904 14.2777 133.106 14.0057 133.245 13.707L134.893 14.571C134.744 14.8484 134.525 15.1524 134.237 15.483C133.96 15.803 133.586 16.0804 133.117 16.315C132.648 16.539 132.05 16.651 131.325 16.651ZM129.389 11.547H133.101C133.058 11.0884 132.872 10.7204 132.541 10.443C132.221 10.1657 131.8 10.027 131.277 10.027C130.733 10.027 130.301 10.1657 129.981 10.443C129.661 10.7204 129.464 11.0884 129.389 11.547Z" fill="white"/>
<path d="M140.671 16.651C139.903 16.651 139.205 16.491 138.575 16.171C137.957 15.851 137.466 15.387 137.103 14.779C136.741 14.171 136.559 13.435 136.559 12.571V12.347C136.559 11.483 136.741 10.747 137.103 10.139C137.466 9.53104 137.957 9.06704 138.575 8.74704C139.205 8.42704 139.903 8.26704 140.671 8.26704C141.429 8.26704 142.079 8.40038 142.623 8.66704C143.167 8.93371 143.605 9.30171 143.935 9.77104C144.277 10.2297 144.501 10.7524 144.607 11.339L142.655 11.755C142.613 11.435 142.517 11.147 142.367 10.891C142.218 10.635 142.005 10.4324 141.727 10.283C141.461 10.1337 141.125 10.059 140.719 10.059C140.314 10.059 139.946 10.1497 139.615 10.331C139.295 10.5017 139.039 10.763 138.847 11.115C138.666 11.4564 138.575 11.8777 138.575 12.379V12.539C138.575 13.0404 138.666 13.467 138.847 13.819C139.039 14.1604 139.295 14.4217 139.615 14.603C139.946 14.7737 140.314 14.859 140.719 14.859C141.327 14.859 141.786 14.7044 142.095 14.395C142.415 14.075 142.618 13.659 142.703 13.147L144.655 13.611C144.517 14.1764 144.277 14.6937 143.935 15.163C143.605 15.6217 143.167 15.9844 142.623 16.251C142.079 16.5177 141.429 16.651 140.671 16.651Z" fill="white"/>
<path d="M149.093 16.427C148.57 16.427 148.143 16.267 147.813 15.947C147.493 15.6164 147.333 15.179 147.333 14.635V10.155H145.349V8.49104H147.333V6.02704H149.349V8.49104H151.525V10.155H149.349V14.283C149.349 14.603 149.498 14.763 149.797 14.763H151.333V16.427H149.093Z" fill="white"/>
<path d="M59.5511 36.427V25.227H61.6631V36.427H59.5511Z" fill="white"/>
<path d="M63.8339 36.427V28.491H65.8179V29.531H66.1059C66.2339 29.2537 66.4739 28.9924 66.8259 28.747C67.1779 28.491 67.7112 28.363 68.4259 28.363C69.0446 28.363 69.5832 28.507 70.0419 28.795C70.5112 29.0724 70.8739 29.4617 71.1299 29.963C71.3859 30.4537 71.5139 31.0297 71.5139 31.691V36.427H69.4979V31.851C69.4979 31.2537 69.3486 30.8057 69.0499 30.507C68.7619 30.2084 68.3459 30.059 67.8019 30.059C67.1832 30.059 66.7032 30.267 66.3619 30.683C66.0206 31.0884 65.8499 31.659 65.8499 32.395V36.427H63.8339Z" fill="white"/>
<path d="M73.6933 36.427V28.491H75.6773V29.531H75.9653C76.0933 29.2537 76.3333 28.9924 76.6853 28.747C77.0373 28.491 77.5706 28.363 78.2853 28.363C78.9039 28.363 79.4426 28.507 79.9013 28.795C80.3706 29.0724 80.7333 29.4617 80.9893 29.963C81.2453 30.4537 81.3733 31.0297 81.3733 31.691V36.427H79.3573V31.851C79.3573 31.2537 79.2079 30.8057 78.9093 30.507C78.6213 30.2084 78.2053 30.059 77.6613 30.059C77.0426 30.059 76.5626 30.267 76.2213 30.683C75.8799 31.0884 75.7093 31.659 75.7093 32.395V36.427H73.6933Z" fill="white"/>
<path d="M87.3286 36.651C86.5393 36.651 85.83 36.491 85.2006 36.171C84.5713 35.851 84.0753 35.387 83.7126 34.779C83.35 34.171 83.1686 33.4404 83.1686 32.587V32.331C83.1686 31.4777 83.35 30.747 83.7126 30.139C84.0753 29.531 84.5713 29.067 85.2006 28.747C85.83 28.427 86.5393 28.267 87.3286 28.267C88.118 28.267 88.8273 28.427 89.4566 28.747C90.086 29.067 90.582 29.531 90.9446 30.139C91.3073 30.747 91.4886 31.4777 91.4886 32.331V32.587C91.4886 33.4404 91.3073 34.171 90.9446 34.779C90.582 35.387 90.086 35.851 89.4566 36.171C88.8273 36.491 88.118 36.651 87.3286 36.651ZM87.3286 34.859C87.9473 34.859 88.4593 34.6617 88.8646 34.267C89.27 33.8617 89.4726 33.2857 89.4726 32.539V32.379C89.4726 31.6324 89.27 31.0617 88.8646 30.667C88.47 30.2617 87.958 30.059 87.3286 30.059C86.71 30.059 86.198 30.2617 85.7926 30.667C85.3873 31.0617 85.1846 31.6324 85.1846 32.379V32.539C85.1846 33.2857 85.3873 33.8617 85.7926 34.267C86.198 34.6617 86.71 34.859 87.3286 34.859Z" fill="white"/>
<path d="M94.7791 36.427L92.2511 28.491H94.3951L96.2351 34.955H96.5231L98.3631 28.491H100.507L97.9791 36.427H94.7791Z" fill="white"/>
<path d="M104.157 36.651C103.592 36.651 103.085 36.555 102.637 36.363C102.189 36.1604 101.832 35.8724 101.565 35.499C101.309 35.115 101.181 34.651 101.181 34.107C101.181 33.563 101.309 33.1097 101.565 32.747C101.832 32.3737 102.195 32.0964 102.653 31.915C103.123 31.723 103.656 31.627 104.253 31.627H106.429V31.179C106.429 30.8057 106.312 30.5017 106.077 30.267C105.843 30.0217 105.469 29.899 104.957 29.899C104.456 29.899 104.083 30.0164 103.837 30.251C103.592 30.475 103.432 30.7684 103.357 31.131L101.501 30.507C101.629 30.1017 101.832 29.7337 102.109 29.403C102.397 29.0617 102.776 28.7897 103.245 28.587C103.725 28.3737 104.307 28.267 104.989 28.267C106.035 28.267 106.861 28.5284 107.469 29.051C108.077 29.5737 108.381 30.331 108.381 31.323V34.283C108.381 34.603 108.531 34.763 108.829 34.763H109.469V36.427H108.125C107.731 36.427 107.405 36.331 107.149 36.139C106.893 35.947 106.765 35.691 106.765 35.371V35.355H106.461C106.419 35.483 106.323 35.6537 106.173 35.867C106.024 36.0697 105.789 36.251 105.469 36.411C105.149 36.571 104.712 36.651 104.157 36.651ZM104.509 35.019C105.075 35.019 105.533 34.8644 105.885 34.555C106.248 34.235 106.429 33.8137 106.429 33.291V33.131H104.397C104.024 33.131 103.731 33.211 103.517 33.371C103.304 33.531 103.197 33.755 103.197 34.043C103.197 34.331 103.309 34.5657 103.533 34.747C103.757 34.9284 104.083 35.019 104.509 35.019Z" fill="white"/>
<path d="M113.405 36.427C112.882 36.427 112.456 36.267 112.125 35.947C111.805 35.6164 111.645 35.179 111.645 34.635V30.155H109.661V28.491H111.645V26.027H113.661V28.491H115.837V30.155H113.661V34.283C113.661 34.603 113.81 34.763 114.109 34.763H115.645V36.427H113.405Z" fill="white"/>
<path d="M117.662 36.427V28.491H119.678V36.427H117.662ZM118.67 27.563C118.307 27.563 117.998 27.4457 117.742 27.211C117.497 26.9764 117.374 26.667 117.374 26.283C117.374 25.899 117.497 25.5897 117.742 25.355C117.998 25.1204 118.307 25.003 118.67 25.003C119.043 25.003 119.353 25.1204 119.598 25.355C119.843 25.5897 119.966 25.899 119.966 26.283C119.966 26.667 119.843 26.9764 119.598 27.211C119.353 27.4457 119.043 27.563 118.67 27.563Z" fill="white"/>
<path d="M125.688 36.651C124.899 36.651 124.189 36.491 123.56 36.171C122.931 35.851 122.435 35.387 122.072 34.779C121.709 34.171 121.528 33.4404 121.528 32.587V32.331C121.528 31.4777 121.709 30.747 122.072 30.139C122.435 29.531 122.931 29.067 123.56 28.747C124.189 28.427 124.899 28.267 125.688 28.267C126.477 28.267 127.187 28.427 127.816 28.747C128.445 29.067 128.941 29.531 129.304 30.139C129.667 30.747 129.848 31.4777 129.848 32.331V32.587C129.848 33.4404 129.667 34.171 129.304 34.779C128.941 35.387 128.445 35.851 127.816 36.171C127.187 36.491 126.477 36.651 125.688 36.651ZM125.688 34.859C126.307 34.859 126.819 34.6617 127.224 34.267C127.629 33.8617 127.832 33.2857 127.832 32.539V32.379C127.832 31.6324 127.629 31.0617 127.224 30.667C126.829 30.2617 126.317 30.059 125.688 30.059C125.069 30.059 124.557 30.2617 124.152 30.667C123.747 31.0617 123.544 31.6324 123.544 32.379V32.539C123.544 33.2857 123.747 33.8617 124.152 34.267C124.557 34.6617 125.069 34.859 125.688 34.859Z" fill="white"/>
<path d="M131.709 36.427V28.491H133.693V29.531H133.981C134.109 29.2537 134.349 28.9924 134.701 28.747C135.053 28.491 135.586 28.363 136.301 28.363C136.92 28.363 137.458 28.507 137.917 28.795C138.386 29.0724 138.749 29.4617 139.005 29.963C139.261 30.4537 139.389 31.0297 139.389 31.691V36.427H137.373V31.851C137.373 31.2537 137.224 30.8057 136.925 30.507C136.637 30.2084 136.221 30.059 135.677 30.059C135.058 30.059 134.578 30.267 134.237 30.683C133.896 31.0884 133.725 31.659 133.725 32.395V36.427H131.709Z" fill="white"/>
<path d="M144.864 36.651C143.83 36.651 142.982 36.427 142.32 35.979C141.659 35.531 141.259 34.891 141.12 34.059L142.976 33.579C143.051 33.9524 143.174 34.2457 143.344 34.459C143.526 34.6724 143.744 34.827 144 34.923C144.267 35.0084 144.555 35.051 144.864 35.051C145.334 35.051 145.68 34.971 145.904 34.811C146.128 34.6404 146.24 34.4324 146.24 34.187C146.24 33.9417 146.134 33.755 145.92 33.627C145.707 33.4884 145.366 33.3764 144.896 33.291L144.448 33.211C143.894 33.1044 143.387 32.9604 142.928 32.779C142.47 32.587 142.102 32.3257 141.824 31.995C141.547 31.6644 141.408 31.2377 141.408 30.715C141.408 29.9257 141.696 29.323 142.272 28.907C142.848 28.4804 143.606 28.267 144.544 28.267C145.43 28.267 146.166 28.4644 146.752 28.859C147.339 29.2537 147.723 29.771 147.904 30.411L146.032 30.987C145.947 30.5817 145.771 30.2937 145.504 30.123C145.248 29.9524 144.928 29.867 144.544 29.867C144.16 29.867 143.867 29.9364 143.664 30.075C143.462 30.203 143.36 30.3844 143.36 30.619C143.36 30.875 143.467 31.067 143.68 31.195C143.894 31.3124 144.182 31.403 144.544 31.467L144.992 31.547C145.59 31.6537 146.128 31.7977 146.608 31.979C147.099 32.1497 147.483 32.4004 147.76 32.731C148.048 33.051 148.192 33.4884 148.192 34.043C148.192 34.875 147.888 35.5204 147.28 35.979C146.683 36.427 145.878 36.651 144.864 36.651Z" fill="white"/>
<path d="M0 0H42.2982L42 42L0 42.2982V0Z" fill="white"/>
</svg>
