<svg width="365" height="560" viewBox="0 0 365 560" fill="none" xmlns="http://www.w3.org/2000/svg">
<path d="M182.9 551.699C182.9 551.799 183.1 551.999 183.1 551.999C183.1 551.999 358.3 282.999 358.3 194.599C358.3 64.4992 269.5 7.89922 182.9 7.69922C96.3 7.89922 7.5 64.4992 7.5 194.599C7.5 282.999 182.8 551.999 182.8 551.999L182.9 551.699ZM122.2 187.199C122.2 153.599 149.4 126.399 183 126.399C216.6 126.399 243.8 153.599 243.8 187.199C243.8 220.799 216.5 247.999 182.9 247.999C149.4 247.999 122.2 220.799 122.2 187.199Z" fill="#A92801"/>
</svg>
