<svg width="173" height="55" viewBox="0 0 173 55" fill="none" xmlns="http://www.w3.org/2000/svg">
<g clip-path="url(#clip0_491_573)">
<path d="M19.141 0.463875C18.5155 0.463875 18.1759 0.356644 17.7292 0.303028C13.7258 10.4543 5.37967 28.8445 0.357666 39.7821C1.09041 39.6748 1.76955 39.4425 2.84186 39.4425C3.91417 39.4425 4.48607 39.657 5.14733 39.7821C7.00601 32.6154 9.27574 27.5934 10.4017 25.002H24.6813C26.0932 28.1117 28.3987 33.0086 30.3825 39.7821C31.4548 39.6212 32.5271 39.4425 33.9926 39.4425C35.4045 39.4425 36.3517 39.6033 37.3168 39.7821C37.1916 39.5676 24.7349 12.1342 20.3921 0.285156C19.9274 0.41026 19.6414 0.463875 19.141 0.463875ZM11.5276 22.1961L17.4611 8.20241L23.5554 22.1961H11.5276Z" fill="#EEEEED"/>
<path d="M54.313 12.0801C45.0554 12.0801 40.7661 18.6212 40.7661 26.4133C40.7661 35.117 46.0205 40.5321 54.599 40.5321C59.1742 40.5321 62.6234 39.2275 65.0898 36.8505C65.1434 35.9569 65.1434 35.0455 65.483 33.4727L64.8038 33.3119C63.946 34.4914 61.3545 37.8692 55.8321 37.8692C54.2058 37.8692 50.5242 37.7084 47.9327 33.4727C46.4136 30.8813 46.4136 27.6644 46.4136 26.0916H66.6625C66.7161 23.0356 66.877 12.0801 54.313 12.0801ZM46.4494 23.7147C46.9498 18.0672 49.3268 14.3498 54.2415 14.3498C61.015 14.3498 61.015 21.856 61.015 23.7147H46.4494Z" fill="#EEEEED"/>
<path d="M82.3541 23.4832C80.3882 22.9828 77.0462 21.7854 77.0462 18.5148C77.0462 16.0843 78.8512 14.2792 82.2826 14.2792C83.1941 14.2792 84.7668 14.4043 85.9464 15.2443C87.5906 16.3702 87.9302 17.7821 88.1446 18.6221H88.8774C89.0561 16.7098 89.4493 15.3515 90.0033 13.886C88.6986 13.2248 86.4468 12.0273 82.5507 12.0273C74.7586 12.0273 72.7748 17.2281 72.7748 20.4271C72.7748 25.3955 76.7781 27.147 79.2087 27.9333C85.1243 29.8456 87.0544 30.4711 87.0544 33.6881C87.0544 36.905 84.2843 38.3169 81.3533 38.3169C80.1201 38.3169 78.6368 38.0846 77.2428 37.2446C75.1517 35.9936 74.5977 34.4744 74.1867 33.5094L73.5075 33.6702C73.4003 34.403 72.9535 36.8335 72.2029 38.1918C72.8284 38.6386 75.9739 40.5509 80.5491 40.5509C88.3948 40.5509 91.3973 35.7612 91.3973 31.472C91.433 25.8602 87.3761 24.7879 82.3541 23.4832Z" fill="#EEEEED"/>
<path d="M111.467 12.0273C102.996 12.0273 97.1162 17.4961 97.1162 26.2891C97.1162 37.8522 105.462 40.5688 111.467 40.5688C120.028 40.5688 126.247 34.9212 126.247 25.9496C126.247 19.0867 122.19 12.0273 111.467 12.0273ZM111.521 38.3169C106.32 38.3169 102.889 33.974 102.889 26.1283C102.889 24.4304 102.889 14.2792 111.807 14.2792C119.152 14.2792 120.493 21.7854 120.493 26.1819C120.493 33.6345 116.936 38.3169 111.521 38.3169Z" fill="#EEEEED"/>
<path d="M148.194 11.9746C141.939 11.9746 139.508 15.9243 138.615 17.3898C138.615 16.2103 138.615 15.3524 138.847 12.2606C138.061 12.4214 137.095 12.6001 136.077 12.6001C135.004 12.6001 134.093 12.4393 133.307 12.2606C133.485 20.4459 133.593 27.3802 133.593 32.5273C133.593 39.8726 133.432 47.2537 132.967 54.5812C133.861 54.3489 134.593 54.2417 136.005 54.2417C137.364 54.2417 138.096 54.3489 138.936 54.5812C138.597 49.3984 138.65 44.2513 138.65 35.4047C139.562 37.728 142.546 40.6411 147.854 40.6411C155.235 40.6411 160.722 35.0472 160.722 26.147C160.74 16.0851 153.841 11.9746 148.194 11.9746ZM146.854 37.7638C144.262 37.7638 142.332 36.7451 140.884 34.9936C139.687 33.5996 138.561 31.7231 138.561 26.7547C138.561 21.1608 139.74 19.1412 140.884 17.7294C142.189 16.0851 144.155 14.7984 147.211 14.7984C150.875 14.7984 154.932 17.8902 154.932 26.4151C154.914 28.2202 154.914 37.7638 146.854 37.7638Z" fill="#EEEEED"/>
<path d="M62.3373 5.03711H46.7351V6.80643H62.3373V5.03711Z" fill="#EEEEED"/>
<path d="M168.961 32.9746C166.96 32.9746 165.28 34.5831 165.28 36.6741C165.28 38.7472 166.924 40.3736 168.979 40.3736C171.017 40.3736 172.661 38.7472 172.661 36.6741C172.643 34.6188 171.035 32.9746 168.961 32.9746ZM168.961 39.7123C167.246 39.7123 165.977 38.4077 165.977 36.6741C165.977 34.9763 167.264 33.6359 168.961 33.6359C170.731 33.6359 171.964 35.012 171.964 36.6741C171.964 38.4255 170.677 39.7123 168.961 39.7123Z" fill="#EEEEED"/>
<path d="M170.552 35.493C170.552 34.4922 169.497 34.5101 168.461 34.5101C167.978 34.5101 167.764 34.5101 167.442 34.4922C167.46 34.939 167.496 35.4573 167.496 36.4938C167.496 37.6913 167.478 38.2095 167.424 38.6563C167.549 38.6385 167.603 38.6206 167.818 38.6206C168.032 38.6206 168.103 38.6563 168.282 38.6563C168.229 37.7449 168.229 37.2623 168.229 36.6189H168.372C168.765 37.0836 169.319 37.6555 170.016 38.6563C170.248 38.6385 170.391 38.6206 170.534 38.6206C170.695 38.6206 170.82 38.6563 170.963 38.6563L170.999 38.5849C170.731 38.3168 169.48 36.9049 169.194 36.5296C169.605 36.5117 170.552 36.3687 170.552 35.493ZM168.229 36.3509C168.229 35.8683 168.229 35.3679 168.246 34.8139C168.926 34.8139 169.748 34.8139 169.748 35.5645C169.748 36.3509 168.675 36.3509 168.229 36.3509Z" fill="#EEEEED"/>
</g>
<defs>
<clipPath id="clip0_491_573">
<rect width="173" height="54.8667" fill="white"/>
</clipPath>
</defs>
</svg>
