<svg width="169" height="39" viewBox="0 0 169 39" fill="none" xmlns="http://www.w3.org/2000/svg">
<g clip-path="url(#clip0_491_546)">
<path fill-rule="evenodd" clip-rule="evenodd" d="M20.5266 26.4717C20.5266 24.3469 18.9586 22.8767 15.6677 22.8767H9.07391V30.1221H15.8287C18.583 30.1221 20.5266 29.1414 20.5266 26.4717ZM19.3402 12.0917C19.3402 10.0212 17.9332 8.60467 15.8287 8.60467H9.07391V15.4685H15.6677C18.0405 15.4685 19.3402 13.7259 19.3402 12.0917ZM30.3576 27.5061C30.3576 33.7171 24.6343 37.8027 18.8513 37.8027H0V0.922851H17.2834C23.9308 0.922851 28.736 4.24359 28.736 11.0556C28.736 16.8851 23.6625 18.6277 23.6625 18.6277C23.6625 18.6826 30.3576 20.2082 30.3576 27.5061Z" fill="#EEEEED"/>
<path fill-rule="evenodd" clip-rule="evenodd" d="M58.5749 19.338C58.5749 13.5634 55.9278 8.87856 50.6933 8.87856C45.4529 8.87856 42.8595 13.5634 42.8595 19.338C42.8595 25.1663 45.4529 29.8505 50.6933 29.8505C55.9278 29.8505 58.5749 25.1663 58.5749 19.338ZM67.6488 19.338C67.6488 30.1778 61.4366 38.6758 50.6933 38.6758C39.9978 38.6758 33.7319 30.1778 33.7319 19.338C33.7319 8.55185 39.9978 0.000201111 50.6874 0.000201111C61.4366 0.000201111 67.6488 8.55185 67.6488 19.338Z" fill="#EEEEED"/>
<path fill-rule="evenodd" clip-rule="evenodd" d="M99.3243 26.6365C99.3243 34.7535 91.9793 38.6758 85.0695 38.6758C77.0747 38.6758 72.967 35.6251 69.7297 31.7577L75.6141 25.9825C78.1001 29.1428 81.3434 30.7227 84.9622 30.7227C87.9312 30.7227 89.9284 29.2519 89.9284 27.0723C89.9284 24.7305 88.1637 24.0007 83.3346 22.9866L82.0409 22.7148C76.2281 21.4938 71.4527 18.1939 71.4527 11.6025C71.4527 4.3583 77.343 0.000201111 85.1232 0.000201111C91.711 0.000201111 95.9797 2.83207 98.5731 5.77125L92.8437 11.4392C91.0612 9.53197 88.3605 8.00694 85.2842 8.00694C83.1796 8.00694 80.8009 8.98766 80.8009 11.4392C80.8009 13.6725 83.275 14.4827 86.4169 15.1432L87.7166 15.4163C92.9749 16.5198 99.3243 18.1397 99.3243 26.6365Z" fill="#EEEEED"/>
<path fill-rule="evenodd" clip-rule="evenodd" d="M134.403 30.6679C130.624 36.1152 127.112 38.6758 119.821 38.6758C109.453 38.6758 102.752 30.0687 102.752 19.1198C102.752 8.7152 108.803 0.0538515 119.928 0.0538515C126.033 0.0538515 130.409 2.4505 134.135 8.06178L126.683 13.019C125.168 10.4036 123.225 8.87855 119.982 8.87855C115.88 8.87855 111.933 12.5481 111.933 19.1198C111.933 26.4838 116.202 29.8505 120.256 29.8505C123.761 29.8505 125.383 28.1072 126.897 25.6015L134.403 30.6679Z" fill="#EEEEED"/>
<path fill-rule="evenodd" clip-rule="evenodd" d="M169 37.8027H159.276V23.2583H148.092V37.8027H138.428V0.922851H148.092V14.4878H159.276V0.922851H169V37.8027Z" fill="#EEEEED"/>
</g>
<defs>
<clipPath id="clip0_491_546">
<rect width="169" height="38.6756" fill="white"/>
</clipPath>
</defs>
</svg>
