<svg width="236" height="55" viewBox="0 0 236 55" fill="none" xmlns="http://www.w3.org/2000/svg">
<g clip-path="url(#clip0_513_589)">
<path d="M0 54.1204H54.1063V0H0V54.1204ZM34.6798 4.13321C44.2431 7.2683 51.1542 16.3369 51.1801 27.0499C51.2061 37.5886 44.4347 46.6356 34.6798 49.9785V4.13321ZM27.0445 2.90667C28.7722 2.90667 30.6126 3.13726 32.1455 3.44254C32.1455 15.7036 20.2893 25.7941 8.05316 25.7941L2.93698 25.7866C3.77597 13.218 14.1739 2.90667 27.0445 2.90667ZM8.05749 28.3468C20.2915 28.3468 32.1433 38.4265 32.1433 50.6757C30.6126 50.9885 28.6802 51.2213 27.0445 51.2213C14.1696 51.204 3.4198 40.8612 2.93373 28.3468H8.05749ZM72.2186 31.8153V28.4042H83.4772V24.0555H72.2164V17.7237H84.1949V13.3848H67.608V31.6183C67.608 36.2278 69.5706 39.3802 74.178 40.0276C74.27 40.0504 74.361 40.0677 74.4454 40.0698H74.5288C75.0008 40.1229 75.4825 40.1575 75.9881 40.1575H84.5143V35.824H76.0259C74.5612 35.824 72.2186 35.1009 72.2186 31.8153ZM87.789 40.164H92.3996V13.3783H87.789V40.164ZM105.935 20.1832C100.107 20.1832 95.7458 24.1984 95.7458 30.4502V30.605C95.7458 36.7042 99.9527 40.6414 106.051 40.6414C108.983 40.6414 111.723 39.8317 114.232 37.1664L111.453 34.4654C109.986 35.9323 108.558 36.7042 106.204 36.7042C102.769 36.7042 100.493 34.6971 100.338 31.6086H115.466C115.543 30.8367 115.543 29.988 115.543 29.988C115.545 24.5449 111.723 20.1832 105.935 20.1832ZM100.455 28.3663C100.648 26.0106 103.041 24.1194 105.935 24.1194C108.636 24.1194 110.836 26.0496 110.836 28.3663H100.455ZM128.5 24.3132C130.584 24.3132 132.128 25.0861 133.439 26.4361L136.295 23.4634C134.057 21.0698 131.394 20.1053 128.5 20.1053C122.633 20.1053 117.925 24.4669 117.925 30.4112C117.925 36.3556 122.633 40.7183 128.5 40.7183C131.394 40.7183 134.058 39.7537 136.295 37.3602L133.439 34.3875C132.128 35.7385 130.584 36.5104 128.5 36.5104C125.103 36.5104 122.518 33.9231 122.518 30.4112C122.518 26.8994 125.103 24.3132 128.5 24.3132ZM143.776 31.8229H143.77V24.9844H147.963V20.7949H143.776V13.3793H139.165V32.0946L139.178 32.0935C139.31 36.4454 141.287 39.4095 145.735 40.0341C145.827 40.0568 145.918 40.0742 146.003 40.0753H146.086C146.558 40.1283 147.04 40.164 147.545 40.164H148.033L148.05 35.8305H147.583C146.118 35.8305 143.776 35.1085 143.776 31.8229ZM156.416 23.6756V20.796H151.843V40.164H156.416V29.9793C156.416 26.7901 158.452 24.7906 161.64 24.7906C162.37 24.7906 163.024 24.8664 163.562 24.9833V20.5264C163.369 20.4885 162.678 20.4106 162.179 20.4106C159.412 20.4116 157.338 21.6804 156.416 23.6756ZM174.835 20.219C168.956 20.219 164.267 24.6748 164.267 30.4794C164.267 36.2809 168.956 40.7399 174.835 40.7399C180.674 40.7399 185.401 36.2809 185.401 30.4794C185.4 24.6759 180.674 20.219 174.835 20.219ZM174.835 36.5515C171.416 36.5515 168.842 33.8982 168.842 30.4794C168.842 27.0586 171.416 24.4074 174.835 24.4074C178.217 24.4074 180.828 27.0586 180.828 30.4794C180.827 33.8993 178.217 36.5515 174.835 36.5515ZM188.235 40.164H192.848V13.3783H188.235V40.164ZM209.477 32.0546C209.477 35.128 207.672 36.4368 205.25 36.4368C202.829 36.4368 201.025 35.128 201.025 32.0957V20.796H196.375V32.4789C196.375 38.013 200.409 40.6642 205.212 40.6642C210.053 40.6642 214.125 37.974 214.125 32.3631V20.796H209.477V32.0546ZM231.57 33.9707L228.662 29.9035L232.263 24.9974L235.346 20.796H230.313L226.124 26.5985L221.898 20.796H216.904L219.767 24.7137L223.588 29.9414L219.583 35.5198L216.25 40.164H221.206L226.123 33.3233L231.042 40.164H235.999L231.57 33.9707Z" fill="#EEEEED"/>
</g>
<defs>
<clipPath id="clip0_513_589">
<rect width="236" height="54.1204" fill="white"/>
</clipPath>
</defs>
</svg>
