<svg width="172" height="36" viewBox="0 0 172 36" fill="none" xmlns="http://www.w3.org/2000/svg">
<g clip-path="url(#clip0_514_694)">
<path d="M46.5808 31.6923V22.6157C42.9367 23.4592 39.4275 25.3825 39.4275 29.3135C39.3991 29.7802 39.4644 30.2478 39.6197 30.6888C39.7749 31.1299 40.0169 31.5353 40.3314 31.8813C40.6459 32.2272 41.0266 32.5067 41.4508 32.7031C41.8751 32.8996 42.3344 33.0091 42.8017 33.0251C44.1817 33.0557 45.5254 32.5818 46.5808 31.6923ZM46.6736 32.4768C45.906 33.4247 44.9369 34.1897 43.8368 34.7165C42.7366 35.2432 41.533 35.5184 40.3132 35.522C39.6103 35.5123 38.9163 35.3627 38.2717 35.082C37.6272 34.8013 37.0449 34.3952 36.5589 33.8872C36.0729 33.3792 35.6929 32.7796 35.441 32.1232C35.1891 31.4669 35.0703 30.7669 35.0917 30.0642C35.0917 24.6571 41.7304 22.5651 46.5808 21.8312V18.8703C46.5808 16.4746 45.3239 14.9056 42.051 14.9056C40.0873 14.8946 38.1942 15.6373 36.7619 16.9808L36.5341 16.7024C38.4237 13.9777 40.8109 12.1388 44.8684 12.1388C49.4742 12.1388 51.1866 14.8128 51.1866 17.6219V30.7728C51.1866 31.92 51.6506 32.7973 52.9918 32.7973C53.8207 32.8024 54.6224 32.5021 55.2441 31.9538L55.3369 32.0466C54.603 33.5228 53.3124 35.4208 50.4949 35.4208C48.1414 35.4208 46.9942 34.1302 46.6736 32.519M25.9307 28.4193V8.4609C26.0424 6.29632 25.2968 4.17488 23.8556 2.55604V2.46325L30.5534 0.0253906V28.3687C30.5534 31.8273 30.9245 33.489 31.6162 34.7375V34.8303H24.9184V34.7375C25.5174 33.4469 25.9307 31.8779 25.9307 28.4193ZM59.1497 29.9377V13.6572H56.6191V13.3788L63.3084 7.61735H63.7724V12.8305H69.6772V13.674H63.7724V29.8027C63.7724 32.0635 64.8268 33.1769 66.9948 33.1769C68.0602 33.1803 69.1088 32.9102 70.04 32.3924L70.1834 32.578C69.5126 33.5095 68.6234 34.262 67.5938 34.7694C66.5643 35.2768 65.4258 35.5237 64.2785 35.4883C61.5117 35.4883 59.1076 34.2398 59.1076 29.904M74.8567 29.9377V13.6572H72.326V13.3788L79.0575 7.61735H79.4793V12.8305H85.4348V13.674H79.4793V29.8027C79.4793 32.0635 80.5422 33.1769 82.7101 33.1769C83.7756 33.1803 84.8241 32.9102 85.7553 32.3924L85.8903 32.578C85.2211 33.5111 84.3322 34.2648 83.3022 34.7724C82.2723 35.2801 81.1331 35.5259 79.9854 35.4883C77.2186 35.4883 74.8145 34.2398 74.8145 29.904M91.8373 20.3887L101.842 20.161V19.6548C101.842 15.0406 100.458 12.9655 97.5566 12.9655C94.0474 12.9655 92.2085 16.1963 91.8373 20.3887ZM97.4638 35.522C91.3312 35.522 87.0881 30.68 87.0881 24.2184C87.0881 16.8374 92.664 12.1388 97.7422 12.1388C100.094 12.1808 102.335 13.1452 103.982 14.8241C105.63 16.5031 106.551 18.762 106.549 21.1142H91.7445V21.9577C91.7445 28.4615 94.9753 31.5489 99.8173 31.5489C101.068 31.5832 102.309 31.3215 103.439 30.7849C104.57 30.2484 105.557 29.4523 106.321 28.4615L106.591 28.6471C105.351 32.4683 102.264 35.4714 97.4638 35.4714M111.104 34.7375C111.948 32.1562 112.158 29.9883 112.158 25.8802V20.4393C112.227 19.352 112.078 18.262 111.722 17.2325C111.366 16.203 110.809 15.2544 110.083 14.4417V14.3658L116.587 11.9195V17.5459H116.773C118.62 15.3358 121.109 12.1556 124.103 12.1556L124.01 17.7821H123.833C122.606 16.9749 121.191 16.4983 119.725 16.3987C118.983 16.3987 117.836 17.0398 116.773 18.4738V25.8549C116.773 29.8618 116.865 32.2153 117.785 34.7544V34.8472H111.104V34.7375ZM130.759 20.3887L140.763 20.161V19.6548C140.763 15.0406 139.38 12.9655 136.478 12.9655C132.969 12.9655 131.121 16.1963 130.759 20.3887ZM136.385 35.522C130.244 35.522 126.001 30.68 126.001 24.2184C126.001 16.8374 131.585 12.1388 136.655 12.1388C139.008 12.1808 141.25 13.1449 142.898 14.8236C144.547 16.5023 145.471 18.7613 145.47 21.1142H130.666V21.9577C130.666 28.4615 133.888 31.5489 138.73 31.5489C139.981 31.5853 141.223 31.3244 142.354 30.7877C143.484 30.251 144.471 29.4538 145.234 28.4615L145.512 28.6471C144.264 32.4683 141.177 35.4714 136.385 35.4714M165.268 29.9377V18.0858C164.425 14.1633 162.13 12.9655 160.013 12.9655C155.956 12.9655 153.417 17.1832 153.417 23.2483C153.417 28.782 155.534 32.4262 159.828 32.4262C160.863 32.4475 161.89 32.2349 162.832 31.804C163.775 31.3731 164.607 30.7352 165.268 29.9377ZM157.432 35.522C152.033 35.522 148.575 30.95 148.575 24.8173C148.575 18.1364 152.674 12.1641 160.612 12.1641C162.203 12.1525 163.782 12.4386 165.268 13.0076V8.57056C165.335 7.48466 165.187 6.39625 164.83 5.36825C164.474 4.34024 163.918 3.39303 163.193 2.58135V2.48856L169.883 0.0422588V25.0451C169.883 31.2705 170.431 32.519 172 33.8518V33.9446L165.454 35.4208V30.8994H165.311C164.533 32.3095 163.393 33.4858 162.007 34.3061C160.622 35.1265 159.042 35.5608 157.432 35.5642M9.4646 17.993C11.6747 17.993 15.3695 20.0513 16.9553 21.6625H17.3771V13.5222H16.9553C15.2682 15.2093 11.7169 17.3688 9.4646 17.3688V17.993Z" fill="#EEEEED"/>
<path d="M14.5934 2.03196C16.6686 2.03196 19.9415 6.92456 22.3878 9.37086L22.8012 9.27806L21.0044 1.07031H0V1.1631C1.47621 3.97213 1.56057 5.6761 1.56057 9.41303V26.4781C1.56057 30.215 1.47621 31.919 0 34.7364V34.8292H8.43551V34.7364C6.91712 31.8768 6.87494 30.3078 6.87494 26.4781V1.84638L14.5934 2.03196Z" fill="#EEEEED"/>
</g>
<defs>
<clipPath id="clip0_514_694">
<rect width="172" height="35.5219" fill="white"/>
</clipPath>
</defs>
</svg>
