<svg width="106" height="43" viewBox="0 0 106 43" fill="none" xmlns="http://www.w3.org/2000/svg">
<g clip-path="url(#clip0_514_658)">
<path fill-rule="evenodd" clip-rule="evenodd" d="M105.985 42.4H0V0H106V42.4H105.985Z" fill="#EEEEED"/>
<path fill-rule="evenodd" clip-rule="evenodd" d="M2.12012 21.1991C2.12012 31.6216 23.4434 40.2791 53.0078 40.2791C82.572 40.2791 103.88 31.6216 103.88 21.1991C103.88 10.7767 82.5568 2.11914 53.0078 2.11914C23.4586 2.11914 2.12012 10.7767 2.12012 21.1991Z" fill="#232323"/>
<path d="M49.235 27.5657C49.5692 28.0402 49.9338 28.4851 50.3592 28.8856H38.8887C38.8887 28.4406 38.4482 27.536 37.962 26.8242C37.4759 26.1123 34.8475 22.2121 34.8475 22.2121V27.5657C34.8475 28.0105 34.8475 28.4406 35.0754 28.8856H25.5193C25.7472 28.4406 25.7472 28.0105 25.7472 27.5657V14.8415C25.7472 14.3966 25.7472 13.9666 25.5193 13.5217H35.0754C34.8475 13.9666 34.8475 14.3966 34.8475 14.8415V20.4028C34.8475 20.4028 37.9012 16.5174 38.6001 15.6127C39.1318 14.9306 39.7852 13.9665 39.7852 13.5217H49.7515C49.0678 13.9666 48.3082 14.7674 47.6853 15.5089C47.1383 16.1614 44.0391 19.8541 44.0391 19.8541C44.0391 19.8541 48.6273 26.6907 49.235 27.5657ZM52.243 14.8415V27.5657C52.243 28.0105 52.243 28.4406 52.0151 28.8856H70.459V24.6145C70.0032 24.8369 69.5626 24.8369 69.1069 24.8369H61.3435V22.82H68.803V19.587H61.3435V17.5554H69.1069C69.5627 17.5554 70.0032 17.5554 70.459 17.7631V13.5069H52.0151C52.243 13.9666 52.243 14.3966 52.243 14.8415ZM96.013 27.5657C96.1649 28.0551 96.4232 28.4999 96.7574 28.8856H86.7607C86.8063 28.4406 86.6392 28.0105 86.4569 27.5657C86.4569 27.5657 86.3049 27.2097 86.0922 26.6907L86.0011 26.4682H80.2431L80.1519 26.7055C80.1519 26.7055 79.9847 27.1356 79.8328 27.5805C79.6809 28.0254 79.5138 28.4554 79.5746 28.9003H71.6896C72.0117 28.5113 72.2543 28.0629 72.4037 27.5805L77.1286 14.8564C77.2957 14.4115 77.4628 13.9814 77.402 13.5366H90.7259C90.6045 13.9814 90.8475 14.4115 91.0147 14.8564C91.4096 15.8203 95.6787 26.7055 96.013 27.5657ZM84.7401 23.2205L83.3424 19.6612C83.2208 19.3351 83.1145 18.994 83.0385 18.6529C82.9777 18.9965 82.8862 19.334 82.765 19.6612C82.7194 19.8096 82.1269 21.3668 81.4432 23.2205H84.7401ZM20.9918 13.5217H10.6001C10.828 13.9666 10.828 14.3966 10.828 14.8415V27.5657C10.828 28.0105 10.828 28.4406 10.6001 28.8856H20.9918C20.7639 28.4406 20.7639 28.0105 20.7639 27.5657V14.8415C20.7639 14.3966 20.7639 13.9666 20.9918 13.5217ZM92.8225 14.7378C92.7769 13.6552 93.6429 12.7506 94.752 12.7209H94.8888C96.013 12.7061 96.9397 13.5661 96.9549 14.6636V14.7378C96.9853 15.85 96.0889 16.7843 94.9343 16.814C93.7948 16.8437 92.8377 15.9686 92.8073 14.8415C92.8225 14.8118 92.8225 14.7674 92.8225 14.7378ZM93.2327 14.7378C93.2327 15.6275 93.9772 16.3543 94.8888 16.3543C95.8004 16.3543 96.5447 15.6275 96.5447 14.7378C96.5447 13.848 95.8003 13.1213 94.8888 13.1213C94.0076 13.0916 93.2631 13.759 93.2327 14.619V14.7378ZM94.4785 15.9389H94.1139V13.5069H95.0407C95.4813 13.5217 95.8155 13.8627 95.8155 14.2929C95.8155 14.5895 95.6484 14.8564 95.3749 15.0047L95.9067 15.9389H95.4965L95.0102 15.0789H94.4785V15.9389ZM94.4785 14.7378H94.9799C95.223 14.7526 95.4357 14.5745 95.4357 14.3373C95.4357 14.1001 95.2686 13.8924 95.0255 13.8924H94.4785V14.7378Z" fill="#EEEEED"/>
</g>
<defs>
<clipPath id="clip0_514_658">
<rect width="106" height="42.4" fill="white"/>
</clipPath>
</defs>
</svg>
