<svg width="295" height="34" viewBox="0 0 295 34" fill="none" xmlns="http://www.w3.org/2000/svg">
<path d="M181.411 0.141369C180.889 0.210234 180.073 0.357802 179.6 0.475857C173.442 1.93186 169.064 7.00821 168.001 13.8947C167.765 15.3999 167.834 18.2824 168.139 19.7974C169.31 25.6018 173.038 30.1174 178.144 31.8882C180.053 32.5572 180.997 32.6949 183.545 32.6851C185.493 32.6851 185.946 32.6556 186.802 32.4686C189.881 31.7997 192.183 30.5601 194.377 28.3662C197.141 25.6116 198.794 21.9126 199.138 17.702C199.188 17.0527 199.217 16.2853 199.188 16C199.168 15.7147 199.119 15.1146 199.089 14.6621C198.902 11.9665 197.682 8.62162 196.02 6.2802C194.77 4.52906 192.872 2.83695 191.042 1.85316C188.248 0.347964 184.618 -0.301336 181.411 0.141369ZM184.805 2.00073C188.809 2.60084 191.347 6.01458 192.173 11.8878C192.35 13.1569 192.35 19.6499 192.173 20.8895C191.642 24.5885 190.609 27.048 188.858 28.7696C187.402 30.2059 185.71 30.8749 183.496 30.8749C179.325 30.8749 176.452 28.1596 175.232 23.0636C174.799 21.283 174.701 20.0827 174.701 16.4624C174.701 14.2292 174.74 12.6945 174.819 12.0846C175.321 8.31665 176.364 5.80799 178.184 4.01749C179.059 3.15176 179.905 2.63035 180.987 2.28603C182.394 1.85316 183.339 1.77446 184.805 2.00073Z" fill="#EEEEED"/>
<path d="M271.939 0.140333C268.928 0.583037 266.587 1.64553 264.796 3.39667C261.973 6.17095 261.284 10.3127 263.153 13.4018C263.665 14.238 265.023 15.576 266.134 16.304C267.315 17.0812 269.243 18.0256 271.89 19.1176C275.825 20.7507 277.507 21.6853 278.707 22.9347C280.458 24.7645 280.488 27.3322 278.786 28.8768C277.812 29.7622 275.992 30.382 274.398 30.382C272.824 30.382 271.014 29.713 269.765 28.68C268.033 27.2338 266.498 24.8236 264.905 20.9966L264.747 20.613L262.77 24.2726L260.802 27.9323L261.029 28.1881C261.156 28.3259 261.619 28.7095 262.052 29.044C264.186 30.7066 266.607 31.7986 269.479 32.3987C270.493 32.6152 271.063 32.6742 272.726 32.7135C274.506 32.7627 274.89 32.7431 276.021 32.5463C280.724 31.7494 283.636 29.2408 284.453 25.2663C284.728 23.948 284.718 22.0493 284.443 20.9966C284 19.334 283.105 17.9961 281.649 16.845C280.055 15.5858 278.402 14.7299 274.457 13.1558C269.912 11.326 268.21 10.2143 267.394 8.56156C267.089 7.95161 267.069 7.84339 267.069 6.86944C267.069 5.91517 267.089 5.78727 267.384 5.17733C268.19 3.46554 270.01 2.33418 272.224 2.17677C275.618 1.94066 277.871 3.85905 280.822 9.50599L281.452 10.7259L282.603 7.29247C283.233 5.41344 283.774 3.78035 283.803 3.67213C283.902 3.27862 281.57 1.73407 279.878 1.07493C277.428 0.130495 274.447 -0.223669 271.939 0.140333Z" fill="#EEEEED"/>
<path d="M0.216433 0.700787C0.295136 0.77949 1.32811 1.68458 2.49882 2.72739L4.64348 4.61626V16.343L4.63364 28.0698L2.32174 30.1357L0 32.2017L3.20715 32.2312C4.96813 32.241 7.85063 32.241 9.60177 32.2312L12.7991 32.2017L10.4872 30.1456L8.18512 28.0894V18.4582C8.18512 13.1654 8.20479 8.83671 8.22447 8.83671C8.24414 8.83671 9.00166 9.71228 9.91658 10.7748C13.8025 15.3297 16.3702 18.3303 20.4333 23.1016C26.8968 30.6866 27.0345 30.844 27.9494 31.9262C28.4118 32.4771 28.825 32.9297 28.8742 32.9297C28.9135 32.9395 28.943 26.5941 28.943 18.832V4.72448L29.7596 3.99648C30.2023 3.59312 31.2451 2.65853 32.0616 1.92068L33.5668 0.572895H27.1525C23.3945 0.572895 20.7776 0.612246 20.8366 0.661436C20.8858 0.710625 21.3875 1.16317 21.9581 1.6649C22.5386 2.17647 23.542 3.07172 24.2012 3.67183L25.4014 4.74416V12.4472C25.4014 16.6873 25.3817 20.1503 25.3621 20.1503C25.3227 20.1503 24.6045 19.3141 19.7348 13.6081C14.3731 7.31184 11.5989 4.06534 10.1133 2.32404L8.62782 0.572895H4.34834C0.767355 0.572895 0.0983788 0.592571 0.216433 0.700787Z" fill="#EEEEED"/>
<path d="M34.6493 0.614834C34.6493 0.63451 35.4461 1.36251 36.4201 2.23808L38.1909 3.83182V16.4145V28.9873L36.3807 30.6007L34.5706 32.2043L47.5074 32.2338C54.63 32.2436 60.4737 32.2436 60.4934 32.2239C60.513 32.2043 60.513 30.0498 60.5032 27.4427L60.4737 22.7009L59.3423 23.9601C58.7225 24.6488 57.237 26.3114 56.0466 27.6493L53.8823 30.0891H48.8453H43.8182L43.8083 23.8027C43.7985 20.3398 43.828 17.4376 43.8575 17.3589C43.9067 17.2212 44.2609 17.2015 46.74 17.2015H49.5536L51.5212 19.8282L53.4888 22.4549L53.5183 19.0904C53.5281 17.2408 53.5281 14.2108 53.5183 12.3711L53.4888 9.00654L51.5212 11.6234L49.5536 14.2403L46.7302 14.2501H43.9165L43.8674 13.7779C43.8182 13.3844 43.8378 3.61539 43.8772 2.95625L43.8969 2.73982H48.9043H53.9118L56.9517 6.15356C58.6242 8.04243 60.1195 9.70503 60.2573 9.87228L60.513 10.1674L60.5229 5.36653V0.575482H47.5861C40.4733 0.575482 34.6493 0.595158 34.6493 0.614834Z" fill="#EEEEED"/>
<path d="M61.2605 0.761708C61.3687 0.869924 62.1656 1.57825 63.0313 2.34561C63.897 3.11296 64.6546 3.83113 64.7234 3.95902C64.7825 4.07707 65.2743 5.18875 65.8154 6.43816C66.3565 7.67774 67.7338 10.8554 68.8849 13.5116C70.0359 16.158 71.787 20.2112 72.7905 22.5133C73.7841 24.8153 75.2106 28.1012 75.9484 29.813C76.6863 31.5346 77.3159 32.9414 77.3454 32.9414C77.3749 32.9414 77.7094 32.1937 78.1029 31.2886C79.1851 28.7898 81.5659 23.2806 83.3465 19.1684C84.2319 17.1418 85.1075 15.0955 85.3043 14.6233C85.501 14.1511 85.6978 13.7772 85.747 13.7871C85.8158 13.8166 88.1966 19.2176 92.4958 29.1833C93.391 31.2493 94.1485 32.9414 94.178 32.9414C94.2076 32.9414 95.3094 30.4524 96.6277 27.4027C98.9396 22.0509 101.143 16.9844 102.727 13.3148C104.104 10.1372 106.082 5.56259 106.446 4.72637L106.8 3.89999L108.64 2.2669L110.47 0.623977L107.823 0.594464C106.367 0.584626 103.996 0.584626 102.57 0.594464L99.9529 0.623977L101.773 2.23739L103.593 3.84096L102.56 6.22173C101.989 7.52033 100.848 10.1667 100.022 12.0851C96.4014 20.4965 95.7521 21.9722 95.6734 21.9918C95.634 22.0017 95.3586 21.4508 95.0634 20.7621C94.7683 20.0735 94.2076 18.7847 93.8239 17.8895C93.4304 16.9942 92.7811 15.489 92.3679 14.5446C91.9547 13.6001 90.7545 10.8259 89.692 8.3959C88.6393 5.95611 87.7834 3.91967 87.7933 3.86064C87.8129 3.78194 89.8986 1.9029 91.4038 0.614139C91.4234 0.594464 88.3835 0.574788 84.6451 0.574788H77.8373L79.6868 2.21771L81.5462 3.87048L82.835 6.88087L84.1237 9.89126L82.1561 14.456C81.074 16.9647 79.8934 19.6996 79.5393 20.526C79.1851 21.3425 78.8703 22.0214 78.8309 22.0214C78.7818 22.0214 76.3518 16.463 71.8165 5.98562C71.3345 4.88378 70.9606 3.91967 70.9705 3.86064C70.9902 3.79177 71.8067 3.02442 72.8003 2.15869L74.6007 0.574788H67.8322C61.172 0.574788 61.0736 0.574788 61.2605 0.761708Z" fill="#EEEEED"/>
<path d="M120.17 1.04621C120.455 1.31183 121.271 2.03984 121.99 2.6793C122.718 3.31876 123.337 3.93855 123.387 4.0566C123.475 4.30255 126.141 10.4512 129.24 17.5935C130.184 19.7677 133.205 26.7427 134.602 29.9696C135.29 31.5535 135.89 32.8521 135.93 32.8521C135.979 32.8521 137.868 28.5628 140.14 23.3093C142.413 18.0559 144.292 13.7567 144.331 13.7567C144.361 13.7567 145.158 15.5374 146.102 17.7214C147.047 19.8956 147.932 21.9419 148.08 22.2665C148.227 22.5912 148.975 24.3128 149.752 26.1033C150.529 27.8839 151.523 30.186 151.966 31.1993L152.772 33.0488L152.999 32.5274C153.117 32.2421 153.49 31.3666 153.835 30.5795C154.179 29.7925 155.684 26.3197 157.18 22.8568C158.675 19.3939 160.259 15.744 160.692 14.7405C161.125 13.7371 161.823 12.1237 162.246 11.1497C162.669 10.1758 163.387 8.51316 163.85 7.46051C164.302 6.40785 164.843 5.16828 165.04 4.7059L165.404 3.86968L167.175 2.29562C168.149 1.42989 168.975 0.692048 168.995 0.652696C169.024 0.603507 166.673 0.573993 163.771 0.573993H158.498L160.328 2.20708C161.331 3.11217 162.138 3.8992 162.118 3.95822C162.059 4.10579 158.488 12.3696 157.524 14.593C157.101 15.5669 156.216 17.623 155.556 19.1676C154.887 20.7121 154.336 21.9911 154.317 22.0107C154.238 22.0894 154.15 21.9025 153.235 19.7874C152.723 18.6068 151.975 16.8852 151.572 15.9703C151.169 15.0455 149.841 11.9958 148.611 9.18214C147.391 6.3685 146.368 4.01725 146.338 3.95822C146.319 3.8992 147.125 3.122 148.129 2.23659L149.968 0.623182L146.555 0.593669C144.686 0.583831 141.646 0.583831 139.806 0.593669L136.471 0.623182L138.32 2.26611L140.16 3.8992L141.38 6.77186C142.049 8.34592 142.61 9.71338 142.629 9.80192C142.659 9.89046 141.872 11.8285 140.898 14.1011C139.914 16.3736 138.753 19.0889 138.311 20.1219C137.868 21.1647 137.465 22.0009 137.425 21.9911C137.346 21.9714 136.992 21.1843 132.152 10.0184L129.476 3.86968L129.899 3.47617C130.135 3.25973 130.883 2.6006 131.552 2.01032C132.231 1.42005 132.87 0.849454 132.978 0.751075C133.165 0.583831 132.959 0.573993 126.417 0.573993H119.658L120.17 1.04621Z" fill="#EEEEED"/>
<path d="M201.372 1.03709C201.657 1.30272 202.464 2.02088 203.172 2.64067L204.441 3.77202L204.451 16.3842V28.9963L202.65 30.5999L200.85 32.2035L204.018 32.233C205.759 32.2428 208.661 32.2428 210.472 32.233L213.748 32.2035L211.957 30.6294L210.167 29.0554L210.157 23.615V18.1845H210.836H211.514L212.095 18.9912C212.419 19.4438 213.826 21.4015 215.223 23.3494C218.037 27.2649 218.558 27.9339 219.611 28.9963C221.342 30.7278 223.054 31.8001 225.081 32.4199C225.868 32.656 226.094 32.6855 227.619 32.6855C229.016 32.6855 229.39 32.656 229.882 32.4986C230.433 32.3215 230.875 32.3019 236.886 32.2527L243.301 32.2035L241.481 30.5999L239.67 28.9865V22.4837V15.971L239.906 16.2169C240.034 16.3547 241.766 18.4993 243.763 20.9883C245.75 23.4773 247.993 26.2713 248.741 27.2058C249.489 28.1306 250.099 28.9373 250.099 28.9865C250.099 29.0357 249.302 29.7834 248.338 30.6393L246.567 32.2035L250.207 32.233C252.204 32.2428 255.47 32.2428 257.467 32.233L261.087 32.2035L259.425 30.7278C257.644 29.1439 258.087 29.6555 251.555 21.6179C250.777 20.6637 249.99 19.6897 249.794 19.4536C249.597 19.2175 248.475 17.8304 247.295 16.3743L245.15 13.7378L245.534 13.364C247.659 11.3177 252.489 6.89063 253.542 6.0249C255.283 4.59841 256.06 3.96878 258.343 2.11926L260.241 0.574713H254.88H249.508L249.498 3.54575V6.52663L248.495 7.45139C247.944 7.96296 246.872 8.96642 246.114 9.67475C245.357 10.3831 243.655 11.9867 242.327 13.2262C240.998 14.4658 239.906 15.5086 239.887 15.548C239.7 15.9612 239.67 14.9675 239.69 9.70426L239.72 3.78186L241.52 2.17829L243.32 0.574713H236.847C231.485 0.574713 230.403 0.594389 230.521 0.702606C230.6 0.771471 231.436 1.50931 232.371 2.33569L234.063 3.84089V16.4137V28.9963L233.797 29.2029C233.64 29.321 233.168 29.7342 232.735 30.1277C232.302 30.5212 231.613 31.141 231.19 31.505L230.442 32.1641L229.813 31.928C227.284 30.9639 225.366 28.9373 221.952 23.6249C219.227 19.3847 218.322 17.9681 218.322 17.9386C218.322 17.9287 218.598 17.8599 218.932 17.791C222.523 17.0925 225.691 14.7806 226.989 11.9375C227.511 10.7864 227.688 9.76329 227.648 8.24826C227.619 7.1169 227.57 6.81193 227.344 6.1823C226.33 3.34899 223.349 1.51915 218.578 0.800984C217.634 0.663254 216.335 0.633741 209.173 0.604227L200.86 0.574713L201.372 1.03709ZM215.125 2.71937C218.175 3.38835 220.211 4.81484 221.264 7.01852C221.756 8.03182 221.903 8.67129 221.893 9.82232C221.883 12.9409 219.699 15.2332 215.991 16.0202C215.223 16.1874 214.535 16.2465 212.597 16.2858L210.157 16.3448V9.37961V2.4144L212.203 2.47342C213.698 2.51278 214.476 2.58164 215.125 2.71937Z" fill="#EEEEED"/>
<path d="M290.827 25.5215C289.922 25.6888 288.938 26.2987 288.466 26.9776C287.187 28.8467 287.797 31.3456 289.794 32.3785C290.345 32.6737 290.444 32.6934 291.418 32.6934C292.274 32.6835 292.529 32.6442 292.923 32.4671C293.621 32.1523 294.389 31.3751 294.723 30.6471C294.969 30.106 295.008 29.9289 294.999 29.1025C294.999 28.3057 294.959 28.0892 294.743 27.6269C294.359 26.8103 293.867 26.2987 293.061 25.9052C292.352 25.5609 291.467 25.4035 290.827 25.5215Z" fill="#EEEEED"/>
</svg>
