<svg width="152" height="34" viewBox="0 0 152 34" fill="none" xmlns="http://www.w3.org/2000/svg">
<g clip-path="url(#clip0_514_649)">
<path d="M89.6054 8.84188C92.5653 8.84188 94.8538 9.50645 96.4694 10.8356C98.0849 12.1657 98.9087 14.114 98.9388 16.6825H94.8159C94.7853 13.6309 93.0184 12.105 89.5146 12.105C88.0647 12.105 86.9166 12.3994 86.0715 12.9885C85.2256 13.5771 84.8031 14.3709 84.8031 15.3677C84.8031 16.0332 84.9608 16.5765 85.2788 16.999C85.5963 17.4225 86.0109 17.7696 86.5246 18.0412C87.0373 18.3144 87.6422 18.5328 88.3369 18.6984C89.032 18.866 89.771 19.0238 90.5559 19.1746C91.5838 19.3866 92.6412 19.6213 93.7288 19.8772C94.8159 20.134 95.7895 20.519 96.6503 21.0327C97.5126 21.5464 98.221 22.2416 98.7801 23.1181C99.3391 23.9947 99.6182 25.1572 99.6182 26.6076C99.6182 27.6655 99.3766 28.6239 98.8925 29.4847C98.4093 30.3465 97.7453 31.0791 96.8998 31.6835C96.0548 32.2884 95.0491 32.7562 93.8866 33.0885C92.7241 33.4213 91.4625 33.5864 90.1038 33.5864C86.8421 33.5864 84.3337 32.8775 82.5831 31.4567C80.8896 30.0847 80.0037 28.1472 79.9184 25.6482H84.1351C84.1888 27.176 84.7094 28.3365 85.7097 29.1228C86.7662 29.954 88.2619 30.3686 90.194 30.3686C91.7953 30.3686 93.0263 30.0743 93.8875 29.4847C94.7478 28.8956 95.1782 28.0274 95.1782 26.8787C95.1782 26.154 95.0116 25.5728 94.6803 25.134C94.3475 24.6972 93.9018 24.3344 93.3428 24.0469C92.7837 23.76 92.1428 23.5327 91.4171 23.3666C90.6924 23.2009 89.9371 23.0422 89.1518 22.8909C88.1193 22.7083 87.0921 22.4966 86.0715 22.2559C85.0441 22.0153 84.1153 21.6446 83.2846 21.1466C82.4544 20.6472 81.7741 19.96 81.2466 19.0844C80.7171 18.2079 80.4529 17.0607 80.4529 15.6403C80.4529 14.6425 80.6722 13.7285 81.11 12.8978C81.5478 12.0671 82.1675 11.3498 82.9681 10.7454C83.7678 10.1409 84.7271 9.67209 85.8448 9.34031C86.9629 9.00753 88.2161 8.84188 89.6054 8.84188ZM67.6314 8.84188C71.2856 8.84188 73.9665 10.0359 75.6737 12.4211C77.38 14.8086 78.2344 18.1778 78.2344 22.5285H60.7896C60.8493 23.6772 61.0608 24.7263 61.4241 25.6778C61.7865 26.6302 62.277 27.4457 62.8962 28.126C63.4944 28.79 64.2182 29.3289 65.026 29.7115C65.8256 30.0896 66.7091 30.2784 67.6763 30.2784C69.1869 30.2784 70.4775 29.9309 71.5503 29.2362C72.6216 28.5411 73.5667 27.2943 73.8225 25.6482H78.2329C77.7138 28.5303 76.4428 30.3765 74.495 31.6603C72.5461 32.9441 70.2281 33.5869 67.5402 33.5869C63.9453 33.5869 61.1978 32.4915 59.2953 30.3006C57.3919 28.1102 56.4399 25.0822 56.4399 21.2137C56.4399 19.4625 56.6963 17.8302 57.21 16.3197C57.7237 14.8086 58.4706 13.4948 59.4531 12.3762C60.429 11.2625 61.6346 10.3734 62.9869 9.7702C64.3609 9.15149 65.9094 8.84188 67.631 8.84188H67.6314ZM34.6716 8.84188C36.4237 8.84188 38.0018 9.14409 39.4068 9.74801C40.8109 10.3524 42.0039 11.2058 42.986 12.3086C43.967 13.4115 44.7228 14.7184 45.2508 16.229C45.7793 17.74 46.0445 19.4009 46.0445 21.2137C46.0445 23.0269 45.7793 24.6962 45.2508 26.2225C44.7218 27.7479 43.9675 29.0543 42.9855 30.1429C42.0044 31.2299 40.803 32.0759 39.3836 32.6803C37.9638 33.2837 36.3778 33.5869 34.6272 33.5869C32.9056 33.5869 31.3493 33.2837 29.96 32.6798C28.5702 32.0759 27.3846 31.2294 26.403 30.1429C25.4219 29.0543 24.6741 27.7479 24.1608 26.2225C23.6471 24.6972 23.3903 23.0269 23.3903 21.2137C23.3903 19.4009 23.6545 17.74 24.184 16.2295C24.7115 14.7184 25.4589 13.4115 26.4262 12.3086C27.3924 11.2058 28.5781 10.3524 29.9827 9.74801C31.3872 9.14409 32.9505 8.84188 34.6711 8.84188H34.6716ZM125.258 8.84188C127.462 8.84188 129.184 9.17466 130.422 9.83873C131.661 10.5038 132.581 11.3493 133.186 12.3762C133.789 13.4041 134.16 14.5444 134.296 15.7981C134.43 17.0097 134.498 18.2277 134.501 19.4468V25.8365C134.501 27.1962 134.537 28.4509 134.613 29.5981C134.683 30.712 134.842 31.8186 135.089 32.9071H131.193C131.12 32.4938 131.059 32.0783 131.011 31.6613C130.951 31.1619 130.905 30.52 130.875 29.7347C129.879 31.0648 128.73 32.0084 127.433 32.5669C126.133 33.126 124.638 33.406 122.946 33.406C120.348 33.406 118.348 32.7484 116.943 31.434C115.539 30.1197 114.837 28.4203 114.837 26.3349C114.837 25.0665 115.086 24.0016 115.584 23.1403C116.076 22.2861 116.758 21.557 117.578 21.0096C118.408 20.4515 119.368 20.0127 120.455 19.6952C121.554 19.376 122.674 19.1338 123.807 18.9705C124.955 18.8049 126.103 18.6762 127.251 18.586C128.398 18.4953 129.455 18.3893 130.422 18.268V17.4521C130.422 15.701 130.014 14.3482 129.2 13.3962C128.383 12.4447 127.07 11.969 125.258 11.969C123.627 11.969 122.313 12.3693 121.316 13.1694C120.319 13.9705 119.821 15.1562 119.821 16.7274H115.698C115.698 15.5191 115.931 14.4315 116.399 13.4647C116.863 12.5037 117.537 11.6595 118.371 10.9948C119.216 10.3145 120.221 9.78598 121.384 9.40834C122.546 9.03021 123.837 8.84139 125.258 8.84139V8.84188ZM108.439 3.85718V9.52124H113.515V12.9653H108.439V24.6134C108.439 25.4288 108.463 26.1614 108.508 26.8112C108.553 27.4609 108.667 28.0042 108.848 28.4425C109.029 28.8813 109.309 29.2131 109.686 29.4403C110.063 29.6666 110.583 29.78 111.248 29.78C111.58 29.78 111.936 29.7731 112.313 29.7568C112.691 29.742 113.121 29.674 113.604 29.5527V32.9071C112.367 33.1787 111.218 33.3143 110.161 33.3143C109.255 33.3143 108.432 33.2019 107.691 32.9746C106.952 32.7484 106.333 32.3791 105.834 31.8654C105.336 31.3502 104.951 30.6566 104.68 29.78C104.407 28.9044 104.272 27.8312 104.272 26.5622V12.9653H99.9672V9.52124H104.272V3.85669H108.439V3.85718ZM149.269 9.24959C150.145 9.24959 151.021 9.34031 151.897 9.52074V13.1916C151.415 13.1069 150.932 13.0313 150.447 12.9648C150.012 12.9061 149.573 12.8759 149.134 12.8746C147.865 12.8746 146.83 13.094 146.03 13.5318C145.24 13.9606 144.588 14.6052 144.15 15.3904C143.698 16.1905 143.38 17.1652 143.198 18.3139C143.017 19.4625 142.927 20.7463 142.927 22.1657V32.9066H138.758V9.52124H142.7V12.9653C143.606 11.5455 144.603 10.5718 145.69 10.0428C146.778 9.51433 147.97 9.2491 149.269 9.2491V9.24959L149.269 9.24959ZM53.3153 0.00439925V32.9066H49.1475V0.00390625H53.3153V0.00439925ZM10.0705 0.00439925C11.4592 0.00439925 12.9096 0.065038 14.4202 0.18533C15.9302 0.306114 17.4102 0.728614 18.8606 1.45431C20.31 2.23965 21.404 3.37996 22.1455 4.87621C22.885 6.37147 23.2552 8.05604 23.2552 9.92944C23.2552 11.9231 22.8539 13.622 22.0543 15.027C21.2536 16.4321 20.174 17.5438 18.8153 18.3587C17.8786 18.9035 16.6559 19.3038 15.1449 19.5597C13.6343 19.8165 11.8517 19.9457 9.79932 19.9457H4.54297V32.9066H0.103027V0.00390625H10.0705V0.00439925ZM130.421 21.4863C129.545 21.6071 128.459 21.7057 127.159 21.7806C125.891 21.8519 124.632 22.0417 123.398 22.3476C122.191 22.6493 121.163 23.1102 120.318 23.7299C119.472 24.3486 119.05 25.2479 119.05 26.4266C119.05 27.5743 119.48 28.5174 120.34 29.2584C121.203 29.9994 122.386 30.3686 123.897 30.3686C124.742 30.3686 125.558 30.2641 126.344 30.0512C127.123 29.8437 127.839 29.4467 128.427 28.8956C129.032 28.3375 129.515 27.5669 129.878 26.5844C130.241 25.6028 130.422 24.3413 130.422 22.8006V21.4863H130.421ZM34.6716 12.1953C33.6136 12.1953 32.6557 12.4072 31.7954 12.8293C30.9332 13.2532 30.2011 13.8572 29.5976 14.6425C28.9932 15.4278 28.5249 16.3729 28.1926 17.4753C27.8598 18.5781 27.6947 19.8096 27.6947 21.1693C27.6947 22.5285 27.8529 23.7674 28.1704 24.885C28.4869 26.0031 28.9474 26.9625 29.5523 27.7632C30.1557 28.5638 30.8883 29.183 31.7496 29.6213C32.6108 30.059 33.5687 30.2784 34.6257 30.2784C35.7143 30.2784 36.7022 30.059 37.5946 29.6213C38.4743 29.1918 39.242 28.5634 39.8367 27.7858C40.4401 27.001 40.9085 26.0569 41.2408 24.9521C41.5735 23.8512 41.7392 22.6187 41.7392 21.259C41.7392 19.8993 41.5726 18.6693 41.2408 17.566C40.908 16.4631 40.4332 15.5112 39.8145 14.7105C39.1948 13.9099 38.4548 13.2907 37.5946 12.8524C36.7333 12.4146 35.7591 12.1953 34.6711 12.1953H34.672H34.6716ZM67.4505 12.1953C65.6683 12.1953 64.2026 12.7622 63.0545 13.8946C61.9068 15.0275 61.1821 16.7727 60.8803 19.1293H73.7929C73.5509 16.7727 72.8562 15.0275 71.7085 13.8946C70.5608 12.7622 69.141 12.1953 67.4495 12.1953H67.4505ZM10.2514 3.62843H4.54297V16.3207H10.2524C11.3996 16.3207 12.4418 16.2674 13.378 16.1619C14.3147 16.0559 15.0384 15.8824 15.5531 15.6408C16.5795 15.1271 17.3575 14.3566 17.8855 13.3287C18.4149 12.3022 18.6792 11.1693 18.6792 9.92993C18.6792 8.69152 18.4149 7.56551 17.8855 6.55339C17.3565 5.54175 16.5795 4.7781 15.5531 4.26489C15.0384 3.99275 14.3147 3.81971 13.378 3.74428C12.4418 3.66836 11.3996 3.62991 10.2524 3.62991L10.2514 3.62843Z" fill="#EEEEED"/>
</g>
<defs>
<clipPath id="clip0_514_649">
<rect width="152" height="33.592" fill="white"/>
</clipPath>
</defs>
</svg>
