<svg width="192" height="30" viewBox="0 0 192 30" fill="none" xmlns="http://www.w3.org/2000/svg">
<g clip-path="url(#clip0_514_629)">
<path d="M3.48472 29.7904H0.789281C0.564381 29.7904 0.00170898 29.7904 0.00170898 29.4535C0.00170898 29.2303 0.11458 29.1166 0.45151 29.0037C2.92541 28.2161 3.48387 26.8684 3.48387 24.9606V4.83494C3.48387 3.03573 2.9212 1.68717 0.45151 0.791784C0.11458 0.791784 0.00170898 0.566884 0.00170898 0.454855C0.00170898 0.00589628 0.564381 0.117925 0.789281 0.117925H23.0443C28.1025 0.117925 32.2627 4.16108 32.2627 9.2226C32.2627 14.2841 28.1025 18.3222 23.0443 18.3222H11.8035V25.1796C11.9164 26.9779 12.4774 28.2119 14.8359 29.0012C15.1728 29.1141 15.2848 29.2269 15.2848 29.451C15.2848 29.7879 14.723 29.7879 14.4981 29.7879H3.48472V29.7904ZM169.406 18.8866H174.689L169.406 9.89309L168.842 8.99349L164.125 18.8866H169.406ZM169.406 0.00252697H173.003L188.065 26.5357C188.515 27.2096 189.075 27.8834 189.749 28.2204C190.311 28.671 190.985 28.7847 191.547 29.0079C191.773 29.1216 191.997 29.2345 191.997 29.4586C191.997 29.7955 191.435 29.7955 191.209 29.7955H177.833C177.609 29.7955 176.933 29.7955 176.933 29.4586C176.933 29.2345 177.158 29.1216 177.385 29.0079C178.059 28.7847 178.507 28.4469 178.733 27.7731C178.958 26.9847 178.733 26.5374 178.171 25.5232C177.408 23.9009 176.621 22.2898 175.812 20.69H163.222L163.111 20.914C162.997 21.3647 162.1 22.9356 161.426 24.6245C160.528 26.4228 160.191 26.8718 160.415 27.7714C160.529 28.4453 161.089 28.7822 161.763 29.0071C161.99 29.1208 162.1 29.2337 162.1 29.4569C162.1 29.7938 161.537 29.7938 161.312 29.7938H155.129C154.905 29.7938 154.341 29.7938 154.341 29.4569C154.341 29.2337 154.455 29.12 154.791 29.0071C155.355 28.783 156.027 28.6702 156.59 28.2195C157.263 27.8826 157.827 27.2087 158.274 26.5349L159.062 24.8502L167.606 6.97107L166.367 4.83494C165.245 3.03573 164.12 1.91207 162.883 1.23737C162.322 0.900444 161.759 0.900444 161.199 0.675543C160.862 0.562672 160.748 0.449801 160.862 0.2249C160.862 0 161.086 0.112871 161.199 0H169.406L169.406 0.00252697ZM135.797 29.6767H136.247C156.932 29.6767 156.708 0.111187 136.247 0.111187H119.273C118.936 0.111187 118.375 -0.00168464 118.375 0.448116C118.375 0.560145 118.599 0.785045 118.823 0.785045C121.296 1.57178 121.856 2.92118 121.97 4.60835V25.1855C121.859 26.983 121.296 28.2178 118.823 29.0062C118.599 29.12 118.375 29.2328 118.375 29.4569C118.375 29.7938 118.937 29.7938 119.273 29.7938H130.177V29.6801H135.797V29.6767ZM135.797 2.249C137.316 2.25499 138.771 2.86082 139.845 3.93458C140.919 5.00833 141.526 6.46302 141.532 7.98186V21.6966C141.526 23.2155 140.919 24.6703 139.845 25.7441C138.771 26.8179 137.316 27.4237 135.797 27.4294H130.173V2.249H135.797ZM92.9656 18.8866H98.2486L92.9656 9.89309L92.4029 8.99349L87.6859 18.8866H92.9656ZM92.9656 0.00252697H96.6718L111.735 26.5357C112.072 27.2096 112.635 27.8834 113.309 28.2204C113.87 28.671 114.547 28.7847 115.221 29.0079C115.445 29.1216 115.669 29.2345 115.669 29.4586C115.669 29.7955 114.995 29.7955 114.771 29.7955H101.399C101.173 29.7955 100.611 29.7955 100.611 29.4586C100.611 29.2345 100.723 29.1216 101.059 29.0079C101.623 28.7847 102.183 28.4469 102.297 27.7731C102.521 26.9847 102.297 26.5374 101.847 25.5232C101.059 23.8386 100.162 22.2634 99.3756 20.69H86.7821L86.67 20.914C86.558 21.3647 85.7704 22.9356 84.9854 24.6245C84.1987 26.4228 83.7497 26.8718 83.9746 27.7714C84.1995 28.4453 84.6485 28.7822 85.3223 29.0071C85.5464 29.1208 85.7713 29.2337 85.7713 29.4569C85.7713 29.7938 85.2094 29.7938 84.8734 29.7938H78.801C78.5761 29.7938 77.9014 29.7938 77.9014 29.4569C77.9014 29.2337 78.1263 29.12 78.3512 29.0071C79.0251 28.783 79.5878 28.6702 80.2633 28.2195C80.8243 27.8826 81.4998 27.2087 81.8359 26.5349L82.6227 24.8502L91.2792 6.97107L90.0444 4.83494C88.9207 3.03573 87.6859 1.91207 86.5597 1.23737C85.8858 0.900444 85.4352 0.900444 84.7605 0.675543C84.5347 0.562672 84.3098 0.449801 84.4236 0.2249C84.5373 0 84.7605 0.112871 84.8742 0H92.9672L92.9656 0.00252697ZM55.8688 19.6741C58.4547 20.5721 61.6025 20.7961 64.0747 20.0111L73.8558 28.4427L74.6425 29.1166C74.6855 29.1607 74.718 29.2138 74.7377 29.2721C74.7574 29.3304 74.7637 29.3924 74.7562 29.4535C74.7562 29.7904 74.1935 29.7904 73.9678 29.7904H63.6266L55.8705 23.3829L49.5741 18.3231V25.2941C49.6878 26.9788 50.3617 28.2161 52.7219 29.0003C52.9468 29.1141 53.0588 29.2261 53.0588 29.4502C53.0588 29.7871 52.4961 29.7871 52.2704 29.7871H38.6694C38.3325 29.7871 37.7698 29.7871 37.7698 29.4502C37.7698 29.2261 37.9955 29.1132 38.2188 29.0003C40.9142 28.1024 41.2511 26.753 41.3665 24.6203V5.17187C41.2536 3.15029 40.9167 1.68717 38.2188 0.791784C37.9939 0.791784 37.7698 0.566884 37.7698 0.454855C37.7698 0.00589628 38.3325 0.117925 38.6694 0.117925H60.59C61.7808 0.112826 62.9608 0.342327 64.0629 0.793323C65.1649 1.24432 66.1673 1.90797 67.0129 2.7464C67.8584 3.58482 68.5305 4.58158 68.9908 5.67976C69.4511 6.77795 69.6906 7.95605 69.6955 9.14679V9.2226C69.704 11.6262 68.7579 13.9348 67.065 15.6411C65.3722 17.3474 63.0711 18.3117 60.6675 18.3222H53.5078C53.8447 18.9961 54.6314 19.2218 55.3053 19.5596C55.531 19.5596 55.6422 19.6741 55.868 19.6741H55.8688ZM55.8688 16.1895H56.7726C59.6946 16.1895 62.1685 13.0408 62.1685 8.99349C62.1635 5.05899 59.6904 1.91207 56.7726 1.91207H49.5733V16.1895H55.8688ZM18.2102 1.91292H11.8035V16.1903H19.2235C22.2559 16.1903 24.6144 13.0417 24.6144 8.99433C24.6144 5.06068 22.2559 1.91292 19.2235 1.91292H18.2102Z" fill="#EEEEED"/>
</g>
<defs>
<clipPath id="clip0_514_629">
<rect width="192" height="29.793" fill="white"/>
</clipPath>
</defs>
</svg>
