<svg width="154" height="42" viewBox="0 0 154 42" fill="none" xmlns="http://www.w3.org/2000/svg">
<path d="M9.20903 20.9686C8.5331 20.9686 7.9924 20.2928 7.9924 19.6168V4.88266C7.9924 4.34195 8.5331 3.66602 9.20903 3.66602H41.2459C41.7866 3.66602 42.4624 4.34195 42.4624 4.88266V10.9655C42.4624 11.6415 41.7866 12.3173 41.2459 12.3173H30.8373C30.1613 12.3173 29.4855 11.6415 29.4855 10.9655V8.80272C29.4855 8.39724 29.0799 7.99166 28.6744 7.99166H21.7804C21.3749 7.99166 20.8342 8.39724 20.8342 8.80272V15.6968C20.8342 16.1022 21.3749 16.643 21.7804 16.643H45.4363C46.3826 16.643 46.7881 17.0485 46.7881 17.8596V36.9195C46.7881 37.5954 46.1123 38.1361 45.4363 38.1361H4.88338C4.20745 38.1361 3.66675 37.5954 3.66675 36.9195V26.5109C3.66675 25.835 4.20745 25.2943 4.88338 25.2943H15.2919C15.9679 25.2943 16.5086 25.835 16.5086 26.5109V32.9994C16.5086 33.4049 17.0493 33.8104 17.4547 33.8104H33.0001C33.4057 33.8104 33.8112 33.4049 33.8112 32.9994V21.7797C33.8112 21.3742 33.4057 20.9686 33.0001 20.9686H9.20903Z" fill="#EEEEED"/>
<path d="M55.4392 17.454V24.3481C55.4392 24.7535 55.0337 25.0239 54.493 25.2943C53.6819 25.4295 53.2764 25.835 53.2764 26.5109V36.9195C53.2764 37.5954 53.8171 38.1361 54.493 38.1361H67.0645C67.7403 38.1361 68.281 37.5954 68.281 36.9195V25.4295C68.281 25.2942 68.5514 25.1591 68.6866 25.2943L80.9876 37.8657C81.2579 38.1361 81.3932 38.1361 81.7986 38.1361H97.2089C97.8847 38.1361 98.5606 37.5954 98.5606 36.9195V26.5109C98.5606 25.835 97.8847 25.2943 97.2089 25.2943H85.9892C85.7188 25.2943 85.5836 25.2943 85.4485 25.0239L77.0675 16.7782C77.0675 16.643 76.9323 16.643 77.0675 16.5078L81.1228 12.4525C81.2579 12.3173 81.3932 12.3173 81.6635 12.3173H93.0183C93.5591 12.3173 94.235 11.6415 94.235 10.9655V4.88266C94.235 4.34195 93.5591 3.66602 93.0183 3.66602H81.7986C81.3932 3.66602 81.2579 3.80124 80.9876 4.0716L68.8217 16.5078C68.5514 16.643 68.281 16.643 68.281 16.3726V4.88266C68.281 4.34195 67.7403 3.66602 67.0645 3.66602H54.493C53.8171 3.66602 53.2764 4.34195 53.2764 4.88266V15.2912C53.2764 15.9671 53.6819 16.3726 54.3578 16.5078C55.1688 16.7782 55.4392 17.0485 55.4392 17.454Z" fill="#EEEEED"/>
<path d="M105.049 36.9195C105.049 37.5954 105.725 38.1361 106.401 38.1361H118.837C119.513 38.1361 120.189 37.5954 120.189 36.9195V26.646C120.189 25.9702 119.784 25.4295 118.972 25.2943C118.297 25.0239 118.026 24.8888 118.026 24.3481V21.7797C118.026 21.3742 118.432 20.9686 118.837 20.9686H123.569C124.109 20.9686 124.515 21.3742 124.515 21.7797C124.515 22.4556 125.191 23.1314 125.731 23.1314H136.14C136.816 23.1314 137.492 22.4556 137.492 21.7797V15.6968C137.492 15.0208 136.816 14.4801 136.14 14.4801H125.731C125.191 14.4801 124.515 15.0208 124.515 15.6968C124.515 16.1022 124.109 16.643 123.569 16.643H118.837C118.432 16.643 118.026 16.1022 118.026 15.6968V8.80272C118.026 8.39724 118.432 7.99166 118.837 7.99166H132.22C132.625 7.99166 133.166 8.39724 133.166 8.80272V10.9655C133.166 11.6415 133.707 12.3173 134.383 12.3173H149.117C149.793 12.3173 150.333 11.6415 150.333 10.9655V4.88266C150.333 4.34195 149.793 3.66602 149.117 3.66602H106.401C105.725 3.66602 105.049 4.34195 105.049 4.88266V15.2912C105.049 15.9671 105.59 16.3726 106.266 16.5078C106.807 16.643 107.212 17.0485 107.212 17.454V24.3481C107.212 24.7535 106.942 25.1591 106.266 25.2943C105.455 25.4295 105.049 25.835 105.049 26.5109V36.9195Z" fill="#EEEEED"/>
</svg>
