<svg width="187" height="39" viewBox="0 0 187 39" fill="none" xmlns="http://www.w3.org/2000/svg">
<path d="M101.205 2.55398H107.685V37.234L85.7958 16.8585V36.1829H79.3158V1.59065L101.205 21.9962V2.55398ZM69.0703 19.4273C69.0703 29.4396 60.927 37.5852 50.9171 37.5852C40.9049 37.5852 32.7616 29.4396 32.7616 19.4273C32.7616 9.41514 40.9049 1.26953 50.9171 1.26953C60.927 1.26953 69.0703 9.41514 69.0703 19.4273ZM62.417 19.4273C62.417 13.0051 57.2492 7.77955 50.8871 7.77955C44.5249 7.77955 39.3871 13.0051 39.3871 19.4273C39.3871 25.8496 44.5526 31.0751 50.8871 31.0751C57.2492 31.0751 62.4147 25.8496 62.4147 19.4273H62.417ZM21.7006 19.7184C19.9772 18.404 17.7017 17.3551 14.345 16.274C7.77727 14.1717 7.77727 12.5385 7.77727 11.7207C7.77727 9.85176 9.84947 7.92508 13.3517 7.92508C16.2994 7.92508 18.5772 9.3851 19.4228 10.0273L19.8894 10.3785L25.115 6.84393L24.5305 6.17399C24.3572 5.96839 20.3283 1.26953 13.324 1.26953C9.96499 1.26953 6.87399 2.35068 4.62622 4.30508C2.37844 6.26177 1.09399 8.94848 1.09399 11.7484C1.09399 14.7285 2.40847 17.2373 4.97505 19.194C6.69842 20.5062 8.97393 21.5573 12.3306 22.6362C18.8984 24.7107 18.8984 26.374 18.8984 27.1918C18.8984 29.0607 16.8261 30.9874 13.324 30.9874C10.3762 30.9874 8.09838 29.5273 7.25286 28.8851L6.78621 28.534L1.56064 32.0685L2.14512 32.7385C2.32069 32.9418 6.3496 37.6129 13.324 37.6129C16.6806 37.6129 19.7739 36.534 22.0217 34.5773C24.2695 32.6206 25.5516 29.9062 25.5516 27.134C25.5516 24.184 24.2695 21.7052 21.7006 19.7184ZM117.988 19.5729C117.988 9.56073 126.131 1.41513 136.143 1.41513C146.153 1.41513 154.296 9.56073 154.296 19.5729C154.296 29.5851 146.153 37.7308 136.143 37.7308C126.131 37.7308 117.988 29.5851 117.988 19.5729ZM124.613 19.5729C124.613 25.9952 129.779 31.2207 136.113 31.2207C142.475 31.2207 147.613 25.9952 147.613 19.5729C147.613 13.1507 142.448 7.92283 136.113 7.92283C129.779 7.92283 124.613 13.1484 124.613 19.5706V19.5729ZM165.33 19.2495C167.051 20.5663 169.326 21.6151 172.685 22.6963C179.251 24.7985 179.251 26.4318 179.251 27.2496C179.251 29.1185 177.179 31.0452 173.676 31.0452C170.729 31.0452 168.453 29.5851 167.605 28.9429L167.139 28.5941L161.915 32.1263L162.498 32.7963C162.673 33.0019 166.702 37.6707 173.679 37.6707C177.033 37.6707 180.126 36.5919 182.374 34.6352C184.622 32.6808 185.906 29.9941 185.906 27.1918C185.906 24.214 184.592 21.7029 182.025 19.7485C180.302 18.434 178.026 17.3829 174.67 16.3041C168.102 14.2018 168.102 12.5663 168.102 11.7485C168.102 9.88185 170.174 7.95518 173.676 7.95518C176.624 7.95518 178.902 9.4152 179.747 10.0574L180.214 10.4063L185.44 6.87403L184.855 6.20408C184.68 5.99848 180.651 1.32966 173.676 1.32966C170.32 1.32966 167.226 2.40849 164.979 4.36289C162.731 6.31959 161.449 9.03402 161.449 11.8085C161.477 14.7863 162.761 17.2951 165.33 19.2518V19.2495Z" fill="#EEEEED"/>
</svg>
