<svg width="164" height="37" viewBox="0 0 164 37" fill="none" xmlns="http://www.w3.org/2000/svg">
<path d="M0.546631 6.80792V12.2199L3.99063 12.3839L7.37996 12.5479L7.54396 24.1919L7.6533 35.7812H13.6666H19.68L19.7893 24.1373L19.9533 12.5479L23.124 12.3839L26.24 12.2199V6.80792V1.34125H13.3933H0.546631V6.80792Z" fill="#EEEEED"/>
<path d="M31.7068 18.5613V35.7812H43.4601H55.2135V31.1346V26.4879H49.4735H43.7335V24.5746V22.6613H48.3801H53.0268V18.2879V13.9146H48.3801H43.7335V12.2746V10.6346H49.4735H55.2135V5.98792V1.34125H43.4601H31.7068V18.5613Z" fill="#EEEEED"/>
<path d="M60.7895 13.7489C60.9535 26.1583 60.9535 26.2129 62.4295 28.7276C67.1855 36.7636 81.3442 38.0209 88.1775 30.9689C91.3482 27.6343 91.8402 25.2836 91.8402 12.5463V1.3396H85.8268H79.8135V10.7423C79.8135 21.4023 79.3215 24.1356 77.3535 24.6276C73.2535 25.6663 72.7068 24.1903 72.7068 11.5623V1.3396H66.6388H60.6255L60.7895 13.7489Z" fill="#EEEEED"/>
<path d="M97.3066 18.5047V35.834L103.211 35.67L109.06 35.506L109.115 30.422C109.169 27.634 109.279 25.2287 109.388 25.1193C109.497 25.01 110.809 27.3607 112.34 30.3673L115.073 35.7793H121.743C125.46 35.7793 128.467 35.67 128.467 35.5607C128.467 35.3967 126.499 32.2807 124.148 28.5633L119.775 21.894L121.251 21.238C126.827 18.8873 127.975 10.5233 123.437 5.38465C120.54 2.10465 119.009 1.72198 107.584 1.44865L97.3066 1.22998V18.5047ZM113.707 11.1793C115.784 13.2567 114.472 16.2633 111.137 16.9193L109.333 17.302V13.694V10.086H110.973C111.903 10.086 113.105 10.578 113.707 11.1793Z" fill="#EEEEED"/>
<path d="M141.751 2.32525C137.705 3.74658 135.136 5.98792 133.605 9.21325C132.348 11.8919 132.293 12.4933 132.293 23.8639V35.7812H138.307H144.32V25.2306C144.32 13.2586 144.593 12.2746 147.873 12.2746C150.825 12.2746 151.099 13.3133 151.317 25.2306L151.536 35.7812H157.549H163.563L163.344 23.6453C163.071 9.92392 162.852 8.93992 159.135 5.55058C156.128 2.81725 153.559 1.83325 148.693 1.55992C145.577 1.34125 143.883 1.55992 141.751 2.32525Z" fill="#EEEEED"/>
</svg>
