<svg width="136" height="45" viewBox="0 0 136 45" fill="none" xmlns="http://www.w3.org/2000/svg">
<path d="M0 16.4805H10.6794L17.0642 30.1734L23.7332 16.4805H34.2686L20.3523 43.0774H13.7686L0 16.4805Z" fill="#EEEEED"/>
<path d="M45.4594 43.0755V16.4785H35.4934V43.0755H45.4594Z" fill="#EEEEED"/>
<path d="M40.5282 13.0048C44.1208 13.0048 47.0322 10.0948 47.0322 6.50223C47.0322 2.90964 44.1208 0 40.5282 0C36.9373 0 34.0256 2.90998 34.0256 6.50258C34.0256 10.0952 36.9373 13.0048 40.5282 13.0048Z" fill="#EEEEED"/>
<path d="M50.6879 8.23553L60.2952 8.16406L60.2925 16.4804H66.0365L66.101 24.1517L60.2956 24.2218L60.2338 43.0773H50.5536L50.6154 24.2218H47.7489L47.7476 16.4804H50.6351L50.6879 8.23553Z" fill="#EEEEED"/>
<path d="M68.4695 16.4794H78.4328L78.3627 20.2791C78.3627 20.2791 81.2668 15.331 88.2165 15.9059C88.1827 20.3858 88.2193 21.21 88.2165 24.9383C85.1328 23.5043 78.371 24.8402 78.343 29.1686C78.3233 32.0364 78.3233 43.076 78.3233 43.076H68.4778L68.4695 16.4794Z" fill="#EEEEED"/>
<path d="M98.9254 15.9932C103.161 15.0371 107.622 16.4082 110.655 19.3179C110.624 18.3787 110.63 16.4794 110.63 16.4794H119.614L119.482 43.0763H110.512C110.512 43.0763 110.425 41.1645 110.52 40.1383C106.716 44.8704 99.7496 45.4086 94.6447 42.1302C90.8518 39.6926 88.9846 36.0486 88.3959 31.811C87.426 24.8267 91.7126 17.6236 98.9254 15.9932ZM104.471 36.4971C108.065 36.4971 110.974 33.5843 110.974 29.9935C110.974 26.4022 108.065 23.4909 104.471 23.4909C100.88 23.4909 97.9697 26.4022 97.9697 29.9935C97.9697 33.5843 100.879 36.4971 104.471 36.4971Z" fill="#EEEEED"/>
<path d="M129.499 44.3923C133.09 44.3923 136 41.4796 136 37.8887C136 34.2975 133.09 31.3848 129.499 31.3848C125.905 31.3848 122.995 34.2975 122.995 37.8887C122.995 41.4796 125.905 44.3923 129.499 44.3923Z" fill="#EEEEED"/>
</svg>
