<svg width="271" height="21" viewBox="0 0 271 21" fill="none" xmlns="http://www.w3.org/2000/svg">
<g clip-path="url(#clip0_514_717)">
<path d="M4.58185 3.48893L13.8926 20.4047L24.6735 20.4131L33.8251 3.48651L38.4123 3.48893V0.421282H24.6143V3.48651H28.5993L21.9352 15.809L15.1813 3.48893L20.0247 3.48651L20.0235 0.421282H0.00400695L0 3.48893H4.58185ZM123.208 3.48093L123.206 0.421396L141.667 0.423847V3.48093H137.069V17.2896H141.332C145.283 17.2896 147.872 14.6809 147.872 11.1406H150.918V20.3869L123.206 20.3892V17.2938H127.86L127.854 3.48093H123.208ZM78.3411 17.8242C74.956 17.763 73.4678 14.0214 73.5328 10.3038C73.6 6.45352 75.4424 3.09626 78.6135 3.15148C81.7846 3.20713 83.4589 6.62862 83.3908 10.477C83.3264 14.1077 81.8276 17.8876 78.3411 17.8242ZM78.444 0C69.174 0 64.2506 4.62459 64.2506 10.4274C64.2506 16.3104 68.9914 21.0002 78.4975 21.0002C88.0005 21.0002 92.6909 16.3104 92.6909 10.4274C92.6909 4.62459 87.7153 0 78.444 0ZM182.408 3.48893L191.719 20.4047L202.5 20.4131L211.651 3.48651L216.239 3.48893V0.421282H202.44V3.48651H206.426L199.762 15.809L193.008 3.48893L197.851 3.48651L197.85 0.421282H177.83L177.826 3.48893H182.408ZM256.173 17.8242C252.788 17.763 251.3 14.0214 251.365 10.3038C251.432 6.45352 253.275 3.09626 256.446 3.15148C259.617 3.20713 261.291 6.62862 261.223 10.477C261.158 14.1077 259.66 17.8876 256.173 17.8242ZM256.276 0C247.006 0 242.083 4.62459 242.083 10.4274C242.083 16.3104 246.823 21.0002 256.33 21.0002C265.833 21.0002 270.523 16.3104 270.523 10.4274C270.523 4.62459 265.548 0 256.276 0Z" fill="#EEEEED"/>
</g>
<defs>
<clipPath id="clip0_514_717">
<rect width="270.524" height="21" fill="white"/>
</clipPath>
</defs>
</svg>
